<svg width="11" height="18" viewBox="0 0 11 18" fill="none" xmlns="http://www.w3.org/2000/svg">
<path d="M8.87013 4.35417V13.4583C8.87013 15.2079 7.38392 16.625 5.54899 16.625C3.71406 16.625 2.22785 15.2079 2.22785 13.4583L2.22785 3.5625C2.22785 2.47 3.15777 1.58333 4.30356 1.58333C5.44935 1.58333 6.37927 2.47 6.37927 3.5625L6.37927 11.875C6.37927 12.3104 6.00564 12.6667 5.54899 12.6667C5.09233 12.6667 4.7187 12.3104 4.7187 11.875L4.7187 4.35417H3.47328L3.47328 11.875C3.47328 12.9675 4.40319 13.8542 5.54899 13.8542C6.69478 13.8542 7.6247 12.9675 7.6247 11.875L7.6247 3.5625C7.6247 1.81291 6.13849 0.395832 4.30356 0.395832C2.46863 0.395832 0.982422 1.81291 0.982422 3.5625L0.982422 13.4583C0.982422 15.865 3.02492 17.8125 5.54899 17.8125C8.07305 17.8125 10.1156 15.865 10.1156 13.4583V4.35417H8.87013Z" fill="white"/>
</svg>
