<svg width="24" height="24" viewBox="0 0 24 24" fill="none" xmlns="http://www.w3.org/2000/svg">
<path fill-rule="evenodd" clip-rule="evenodd" d="M2.25 12C2.25 6.61704 6.61704 2.25 12 2.25C17.383 2.25 21.75 6.61704 21.75 12C21.75 17.383 17.383 21.75 12 21.75C6.61704 21.75 2.25 17.383 2.25 12ZM12 3.75C7.44546 3.75 3.75 7.44546 3.75 12C3.75 16.5545 7.44546 20.25 12 20.25C16.5545 20.25 20.25 16.5545 20.25 12C20.25 7.44546 16.5545 3.75 12 3.75Z" fill="#5EB586"/>
<path d="M11.9765 17.2224C11.7911 17.2224 11.6098 17.1674 11.4557 17.0644C11.3015 16.9614 11.1813 16.815 11.1104 16.6437C11.0394 16.4724 11.0208 16.2839 11.057 16.102C11.0932 15.9201 11.1825 15.7531 11.3136 15.622C11.4447 15.4909 11.6117 15.4016 11.7936 15.3654C11.9755 15.3292 12.164 15.3478 12.3353 15.4188C12.5066 15.4897 12.653 15.6099 12.756 15.7641C12.859 15.9182 12.914 16.0995 12.914 16.2849C12.914 16.5335 12.8152 16.772 12.6394 16.9478C12.4636 17.1236 12.2251 17.2224 11.9765 17.2224ZM12.9946 7.7935L12.7256 13.5122C12.7256 13.7112 12.6465 13.9019 12.5059 14.0426C12.3652 14.1832 12.1745 14.2622 11.9756 14.2622C11.7767 14.2622 11.5859 14.1832 11.4452 14.0426C11.3046 13.9019 11.2256 13.7112 11.2256 13.5122L10.9565 7.79631V7.79397C10.9506 7.65659 10.9726 7.51944 11.0211 7.39077C11.0696 7.26211 11.1436 7.14459 11.2388 7.0453C11.3339 6.946 11.4481 6.86699 11.5746 6.81301C11.701 6.75903 11.8371 6.7312 11.9746 6.7312C12.1121 6.7312 12.2482 6.75903 12.3747 6.81301C12.5011 6.86699 12.6154 6.946 12.7105 7.0453C12.8056 7.14459 12.8797 7.26211 12.9282 7.39077C12.9767 7.51944 12.9986 7.65659 12.9927 7.79397L12.9946 7.7935Z" fill="#5EB586"/>
</svg>
