<svg width="16" height="16" viewBox="0 0 16 16" fill="none" xmlns="http://www.w3.org/2000/svg">
<path d="M7.33366 5.99935H10.0003C10.1771 5.99935 10.3467 5.92911 10.4717 5.80409C10.5968 5.67906 10.667 5.50949 10.667 5.33268C10.667 5.15587 10.5968 4.9863 10.4717 4.86128C10.3467 4.73625 10.1771 4.66602 10.0003 4.66602H8.667V3.99935C8.667 3.82254 8.59676 3.65297 8.47173 3.52794C8.34671 3.40292 8.17714 3.33268 8.00033 3.33268C7.82352 3.33268 7.65395 3.40292 7.52892 3.52794C7.4039 3.65297 7.33366 3.82254 7.33366 3.99935V4.66602C6.80323 4.66602 6.29452 4.87673 5.91945 5.2518C5.54438 5.62687 5.33366 6.13558 5.33366 6.66601C5.33366 7.19645 5.54438 7.70516 5.91945 8.08023C6.29452 8.4553 6.80323 8.66601 7.33366 8.66601H8.667C8.84381 8.66601 9.01338 8.73625 9.1384 8.86128C9.26342 8.9863 9.33366 9.15587 9.33366 9.33268C9.33366 9.50949 9.26342 9.67906 9.1384 9.80409C9.01338 9.92911 8.84381 9.99935 8.667 9.99935H6.00033C5.82352 9.99935 5.65395 10.0696 5.52892 10.1946C5.4039 10.3196 5.33366 10.4892 5.33366 10.666C5.33366 10.8428 5.4039 11.0124 5.52892 11.1374C5.65395 11.2624 5.82352 11.3327 6.00033 11.3327H7.33366V11.9993C7.33366 12.1762 7.4039 12.3457 7.52892 12.4708C7.65395 12.5958 7.82352 12.666 8.00033 12.666C8.17714 12.666 8.34671 12.5958 8.47173 12.4708C8.59676 12.3457 8.667 12.1762 8.667 11.9993V11.3327C9.19743 11.3327 9.70614 11.122 10.0812 10.7469C10.4563 10.3718 10.667 9.86311 10.667 9.33268C10.667 8.80225 10.4563 8.29354 10.0812 7.91847C9.70614 7.54339 9.19743 7.33268 8.667 7.33268H7.33366C7.15685 7.33268 6.98728 7.26244 6.86226 7.13742C6.73723 7.01239 6.667 6.84283 6.667 6.66601C6.667 6.4892 6.73723 6.31963 6.86226 6.19461C6.98728 6.06959 7.15685 5.99935 7.33366 5.99935ZM8.00033 0.666016C6.54993 0.666016 5.13211 1.09611 3.92615 1.9019C2.72019 2.7077 1.78025 3.85301 1.22521 5.193C0.67017 6.53299 0.524945 8.00748 0.807903 9.43001C1.09086 10.8525 1.78929 12.1592 2.81488 13.1848C3.84046 14.2104 5.14714 14.9088 6.56967 15.1918C7.99219 15.4747 9.46668 15.3295 10.8067 14.7745C12.1467 14.2194 13.292 13.2795 14.0978 12.0735C14.9036 10.8676 15.3337 9.44974 15.3337 7.99935C15.3337 6.05443 14.561 4.18917 13.1858 2.8139C11.8105 1.43863 9.94525 0.666016 8.00033 0.666016ZM8.00033 13.9993C6.81364 13.9993 5.6536 13.6475 4.66691 12.9882C3.68021 12.3289 2.91118 11.3918 2.45705 10.2954C2.00293 9.19909 1.88411 7.99269 2.11562 6.82881C2.34713 5.66492 2.91857 4.59582 3.75769 3.75671C4.5968 2.91759 5.6659 2.34615 6.82979 2.11464C7.99367 1.88313 9.20007 2.00195 10.2964 2.45607C11.3928 2.9102 12.3299 3.67923 12.9891 4.66593C13.6484 5.65262 14.0003 6.81266 14.0003 7.99935C14.0003 9.59065 13.3682 11.1168 12.243 12.242C11.1178 13.3672 9.59163 13.9993 8.00033 13.9993Z" fill="#27AE60"/>
</svg>
