<svg width="14" height="11" viewBox="0 0 14 11" fill="none" xmlns="http://www.w3.org/2000/svg">
<path d="M6.98032 0.206411C3.4706 -0.776147 0 1.8769 0 5.49992C0 9.1299 3.47693 11.7742 6.98032 10.7934C10.4949 11.7782 13.958 9.11564 13.958 5.49992C13.958 1.88016 10.4906 -0.777105 6.98032 0.206411ZM0.821056 5.49992C0.821056 2.8966 2.95963 0.783176 5.57366 0.825269C4.00927 1.79521 2.96503 3.5278 2.96503 5.49992C2.96503 7.47205 4.00927 9.20464 5.57366 10.1746C2.95969 10.2167 0.821056 8.1033 0.821056 5.49992ZM8.4615 10.1753C5.88347 10.1753 3.78611 8.07793 3.78611 5.49992C3.78611 2.92192 5.88347 0.82453 8.4615 0.82453C11.0395 0.82453 13.1369 2.92192 13.1369 5.49992C13.1369 8.07793 11.0395 10.1753 8.4615 10.1753Z" fill="#B1B1B1"/>
<path d="M7.55607 5.77978C7.24667 5.77978 6.99353 5.67531 6.79663 5.46637C6.60376 5.2534 6.50732 4.97012 6.50732 4.61652C6.50732 4.26291 6.60376 3.98164 6.79663 3.77269C6.99353 3.55973 7.24667 3.45325 7.55607 3.45325C7.86548 3.45325 8.11661 3.55973 8.30949 3.77269C8.50236 3.98164 8.5988 4.26291 8.5988 4.61652C8.5988 4.97012 8.50236 5.2534 8.30949 5.46637C8.11661 5.67531 7.86548 5.77978 7.55607 5.77978ZM10.0695 3.50147H10.7867L7.90566 7.72057H7.18841L10.0695 3.50147ZM7.55607 5.28555C7.69269 5.28555 7.79918 5.22929 7.87552 5.11678C7.95589 5.00427 7.99607 4.83752 7.99607 4.61652C7.99607 4.39551 7.95589 4.22876 7.87552 4.11625C7.79918 4.00374 7.69269 3.94749 7.55607 3.94749C7.42347 3.94749 7.31699 4.00575 7.23663 4.12228C7.15626 4.23479 7.11608 4.39953 7.11608 4.61652C7.11608 4.8335 7.15626 5.00025 7.23663 5.11678C7.31699 5.22929 7.42347 5.28555 7.55607 5.28555ZM10.419 7.76879C10.2181 7.76879 10.0373 7.72258 9.87658 7.63017C9.71987 7.53373 9.59732 7.39711 9.50892 7.22031C9.42052 7.04351 9.37632 6.83858 9.37632 6.60552C9.37632 6.37247 9.42052 6.16754 9.50892 5.99074C9.59732 5.81394 9.71987 5.67933 9.87658 5.58691C10.0373 5.49047 10.2181 5.44226 10.419 5.44226C10.7284 5.44226 10.9796 5.54874 11.1725 5.7617C11.3693 5.97065 11.4678 6.25192 11.4678 6.60552C11.4678 6.95913 11.3693 7.24241 11.1725 7.45537C10.9796 7.66432 10.7284 7.76879 10.419 7.76879ZM10.419 7.27455C10.5557 7.27455 10.6621 7.2183 10.7385 7.10579C10.8189 6.98926 10.859 6.82251 10.859 6.60552C10.859 6.38854 10.8189 6.2238 10.7385 6.11129C10.6621 5.99476 10.5557 5.93649 10.419 5.93649C10.2864 5.93649 10.18 5.99275 10.0996 6.10526C10.0192 6.21777 9.97905 6.38452 9.97905 6.60552C9.97905 6.82653 10.0192 6.99328 10.0996 7.10579C10.18 7.2183 10.2864 7.27455 10.419 7.27455Z" fill="#B1B1B1"/>
</svg>
