<svg width="19" height="18" viewBox="0 0 19 18" fill="none" xmlns="http://www.w3.org/2000/svg">
<g clip-path="url(#clip0_2_1169)">
<path d="M6.91465 16.5C7.33507 16.5 7.67588 16.1642 7.67588 15.75C7.67588 15.3358 7.33507 15 6.91465 15C6.49423 15 6.15341 15.3358 6.15341 15.75C6.15341 16.1642 6.49423 16.5 6.91465 16.5Z" stroke="white" stroke-width="1.33333" stroke-linecap="round" stroke-linejoin="round"/>
<path d="M15.2882 16.5C15.7086 16.5 16.0494 16.1642 16.0494 15.75C16.0494 15.3358 15.7086 15 15.2882 15C14.8678 15 14.527 15.3358 14.527 15.75C14.527 16.1642 14.8678 16.5 15.2882 16.5Z" stroke="white" stroke-width="1.33333" stroke-linecap="round" stroke-linejoin="round"/>
<path d="M0.824738 0.75H3.86968L5.90979 10.7925C5.9794 11.1378 6.17007 11.448 6.4484 11.6687C6.72674 11.8895 7.07501 12.0067 7.43226 12H14.8315C15.1887 12.0067 15.537 11.8895 15.8153 11.6687C16.0937 11.448 16.2843 11.1378 16.3539 10.7925L17.5719 4.5H4.63092" stroke="white" stroke-width="1.33333" stroke-linecap="round" stroke-linejoin="round"/>
</g>
<defs>
<clipPath id="clip0_2_1169">
<rect width="18.2697" height="18" fill="white" transform="translate(0.0635071)"/>
</clipPath>
</defs>
</svg>
