<svg width="15" height="11" viewBox="0 0 15 11" fill="none" xmlns="http://www.w3.org/2000/svg">
<path d="M5.30464 0.387174C5.55584 0.650929 5.55584 1.08876 5.30957 1.35779L2.3198 4.57032H13.7125C14.0622 4.57032 14.3478 4.87628 14.3478 5.25608C14.3478 5.63589 14.0622 5.94184 13.7125 5.94184H2.3198L5.31449 9.15437C5.56077 9.4234 5.55584 9.85596 5.30957 10.125C5.05837 10.3887 4.6594 10.3887 4.4082 10.1197L0.349601 5.74139C0.295421 5.67809 0.251092 5.60951 0.216613 5.52511C0.182135 5.44071 0.167358 5.35103 0.167358 5.26136C0.167358 5.082 0.23139 4.9132 0.349601 4.78132L4.4082 0.403C4.64955 0.128695 5.05344 0.12342 5.30464 0.387174V0.387174Z" fill="#6F6E6E"/>
</svg>
