<svg width="15" height="11" viewBox="0 0 15 11" fill="none" xmlns="http://www.w3.org/2000/svg">
<path d="M9.21051 0.387174C8.95931 0.650929 8.95931 1.08876 9.20558 1.35779L12.1954 4.57032H0.802702C0.452992 4.57032 0.167315 4.87628 0.167315 5.25608C0.167315 5.63589 0.452992 5.94184 0.802702 5.94184H12.1954L9.20066 9.15437C8.95438 9.4234 8.95931 9.85596 9.20558 10.125C9.45678 10.3887 9.85575 10.3887 10.1069 10.1197L14.1656 5.74139C14.2197 5.67809 14.2641 5.60951 14.2985 5.52511C14.333 5.44071 14.3478 5.35103 14.3478 5.26136C14.3478 5.082 14.2838 4.9132 14.1656 4.78132L10.1069 0.403C9.8656 0.128695 9.46171 0.12342 9.21051 0.387174Z" fill="#6F6E6E"/>
</svg>
