<svg width="17" height="17" viewBox="0 0 17 17" fill="none" xmlns="http://www.w3.org/2000/svg">
<path d="M6.37435 15.5833C6.76555 15.5833 7.08268 15.2662 7.08268 14.875C7.08268 14.4838 6.76555 14.1666 6.37435 14.1666C5.98315 14.1666 5.66602 14.4838 5.66602 14.875C5.66602 15.2662 5.98315 15.5833 6.37435 15.5833Z" stroke="white" stroke-width="1.33333" stroke-linecap="round" stroke-linejoin="round"/>
<path d="M14.1673 15.5833C14.5585 15.5833 14.8756 15.2662 14.8756 14.875C14.8756 14.4838 14.5585 14.1666 14.1673 14.1666C13.7761 14.1666 13.459 14.4838 13.459 14.875C13.459 15.2662 13.7761 15.5833 14.1673 15.5833Z" stroke="white" stroke-width="1.33333" stroke-linecap="round" stroke-linejoin="round"/>
<path d="M0.708984 0.708374H3.54232L5.44065 10.193C5.50542 10.5191 5.68284 10.812 5.94183 11.0205C6.20082 11.229 6.52489 11.3397 6.85732 11.3334H13.7423C14.0747 11.3397 14.3988 11.229 14.6578 11.0205C14.9168 10.812 15.0942 10.5191 15.159 10.193L16.2923 4.25004H4.25065" stroke="white" stroke-width="1.33333" stroke-linecap="round" stroke-linejoin="round"/>
</svg>
