<svg width="20" height="17" viewBox="0 0 20 17" fill="none" xmlns="http://www.w3.org/2000/svg">
<path d="M15.4164 2.125H13.7497C13.5197 2.125 13.333 2.28368 13.333 2.47918C13.333 2.67468 13.5197 2.83332 13.7497 2.83332H15.4164C15.6455 2.83332 15.833 2.9927 15.833 3.1875V15.9375C15.833 16.1323 15.6455 16.2917 15.4164 16.2917H4.58301C4.35383 16.2917 4.16633 16.1323 4.16633 15.9375V3.1875C4.16633 2.9927 4.35383 2.83332 4.58301 2.83332H6.24969C6.47969 2.83332 6.66637 2.67464 6.66637 2.47914C6.66637 2.28364 6.47969 2.125 6.24969 2.125H4.58301C3.89383 2.125 3.33301 2.6017 3.33301 3.1875V15.9375C3.33301 16.5233 3.89383 17 4.58301 17H15.4163C16.1055 17 16.6663 16.5233 16.6663 15.9375V3.1875C16.6664 2.6017 16.1055 2.125 15.4164 2.125Z" fill="#9E9E9E"/>
<path d="M12.9164 1.41668H11.6664C11.6664 0.635375 10.9189 0 9.99969 0C9.08051 0 8.33301 0.635375 8.33301 1.41668H7.08301C6.39383 1.41668 5.83301 1.89338 5.83301 2.47918V3.1875C5.83301 3.383 6.01969 3.54168 6.24969 3.54168H13.7497C13.9797 3.54168 14.1664 3.383 14.1664 3.1875V2.47918C14.1664 1.89338 13.6055 1.41668 12.9164 1.41668ZM13.333 2.83332H6.66637V2.47918C6.66637 2.28438 6.85387 2.125 7.08305 2.125H8.74969C8.97969 2.125 9.16637 1.96632 9.16637 1.77082V1.41668C9.16637 1.02568 9.53969 0.708356 9.99969 0.708356C10.4597 0.708356 10.833 1.02568 10.833 1.41668V1.77086C10.833 1.96632 11.0197 2.125 11.2497 2.125H12.9164C13.1455 2.125 13.333 2.28438 13.333 2.47918V2.83332H13.333Z" fill="#9E9E9E"/>
<path d="M6.24969 9.20836C6.47981 9.20836 6.66637 9.04978 6.66637 8.85418C6.66637 8.65857 6.47981 8.5 6.24969 8.5C6.01956 8.5 5.83301 8.65857 5.83301 8.85418C5.83301 9.04978 6.01956 9.20836 6.24969 9.20836Z" fill="#9E9E9E"/>
<path d="M6.24969 11.3334C6.47981 11.3334 6.66637 11.1748 6.66637 10.9792C6.66637 10.7836 6.47981 10.625 6.24969 10.625C6.01956 10.625 5.83301 10.7836 5.83301 10.9792C5.83301 11.1748 6.01956 11.3334 6.24969 11.3334Z" fill="#9E9E9E"/>
<path d="M6.24969 13.4584C6.47981 13.4584 6.66637 13.2998 6.66637 13.1042C6.66637 12.9086 6.47981 12.75 6.24969 12.75C6.01956 12.75 5.83301 12.9086 5.83301 13.1042C5.83301 13.2998 6.01956 13.4584 6.24969 13.4584Z" fill="#9E9E9E"/>
<path d="M13.75 8.5H7.91668C7.68668 8.5 7.5 8.65868 7.5 8.85418C7.5 9.04968 7.68668 9.20836 7.91668 9.20836H13.75C13.98 9.20836 14.1667 9.04968 14.1667 8.85418C14.1667 8.65868 13.98 8.5 13.75 8.5Z" fill="#9E9E9E"/>
<path d="M6.24969 7.08336C6.47981 7.08336 6.66637 6.92479 6.66637 6.72918C6.66637 6.53357 6.47981 6.375 6.24969 6.375C6.01956 6.375 5.83301 6.53357 5.83301 6.72918C5.83301 6.92479 6.01956 7.08336 6.24969 7.08336Z" fill="#9E9E9E"/>
<path d="M13.75 6.375H7.91668C7.68668 6.375 7.5 6.53368 7.5 6.72918C7.5 6.92468 7.68668 7.08336 7.91668 7.08336H13.75C13.98 7.08336 14.1667 6.92468 14.1667 6.72918C14.1667 6.53368 13.98 6.375 13.75 6.375Z" fill="#9E9E9E"/>
<path d="M13.75 10.625H7.91668C7.68668 10.625 7.5 10.7837 7.5 10.9792C7.5 11.1747 7.68668 11.3334 7.91668 11.3334H13.75C13.98 11.3334 14.1667 11.1747 14.1667 10.9792C14.1667 10.7837 13.98 10.625 13.75 10.625Z" fill="#9E9E9E"/>
<path d="M13.75 12.75H7.91668C7.68668 12.75 7.5 12.9087 7.5 13.1042C7.5 13.2997 7.68668 13.4584 7.91668 13.4584H13.75C13.98 13.4584 14.1667 13.2997 14.1667 13.1042C14.1667 12.9087 13.98 12.75 13.75 12.75Z" fill="#9E9E9E"/>
</svg>
