<svg width="24" height="24" viewBox="0 0 24 24" fill="none" xmlns="http://www.w3.org/2000/svg">
<path d="M13.5909 12.0001L18.0441 7.547C18.2554 7.33602 18.3743 7.04974 18.3745 6.75111C18.3748 6.45249 18.2564 6.166 18.0455 5.95465C17.8345 5.74331 17.5482 5.62443 17.2496 5.62416C16.951 5.6239 16.6645 5.74227 16.4531 5.95325L12 10.4064L7.54687 5.95325C7.33553 5.7419 7.04888 5.62317 6.75 5.62317C6.45111 5.62317 6.16447 5.7419 5.95312 5.95325C5.74178 6.16459 5.62305 6.45123 5.62305 6.75012C5.62305 7.04901 5.74178 7.33565 5.95312 7.547L10.4062 12.0001L5.95312 16.4532C5.74178 16.6646 5.62305 16.9512 5.62305 17.2501C5.62305 17.549 5.74178 17.8357 5.95312 18.047C6.16447 18.2583 6.45111 18.3771 6.75 18.3771C7.04888 18.3771 7.33553 18.2583 7.54687 18.047L12 13.5939L16.4531 18.047C16.6645 18.2583 16.9511 18.3771 17.25 18.3771C17.5489 18.3771 17.8355 18.2583 18.0469 18.047C18.2582 17.8357 18.3769 17.549 18.3769 17.2501C18.3769 16.9512 18.2582 16.6646 18.0469 16.4532L13.5909 12.0001Z" fill="#6F6E6E"/>
</svg>
