<svg width="19" height="19" viewBox="0 0 19 19" fill="none" xmlns="http://www.w3.org/2000/svg">
<g clip-path="url(#clip0_2510_21218)">
<path d="M17.737 9.74616C17.6605 9.58975 17.6605 9.41036 17.737 9.25398L18.4456 7.80431C18.8401 6.99715 18.5275 6.0351 17.7339 5.61402L16.3086 4.85773C16.1548 4.77617 16.0494 4.631 16.0193 4.45959L15.7405 2.87024C15.5853 1.98534 14.7667 1.3907 13.8773 1.51654L12.2797 1.74253C12.1072 1.76687 11.9367 1.71143 11.8116 1.59042L10.6519 0.468536C10.0062 -0.15616 8.99457 -0.156197 8.34887 0.468536L7.18914 1.59053C7.06401 1.71158 6.89349 1.76691 6.72108 1.74264L5.12342 1.51665C4.23373 1.39074 3.41547 1.98545 3.26024 2.87035L2.98148 4.45963C2.95138 4.63107 2.84596 4.77621 2.69221 4.85781L1.26685 5.61409C0.473234 6.03513 0.160627 6.99726 0.555171 7.80442L1.26377 9.25406C1.34022 9.41047 1.34022 9.58986 1.26377 9.74623L0.555134 11.1959C0.160589 12.003 0.473197 12.9651 1.26681 13.3862L2.69218 14.1424C2.84596 14.224 2.95138 14.3692 2.98148 14.5406L3.26024 16.1299C3.40155 16.9355 4.0923 17.5005 4.88618 17.5004C4.96437 17.5004 5.04371 17.4949 5.12346 17.4836L6.72112 17.2576C6.89341 17.2332 7.06404 17.2887 7.18917 17.4097L8.34887 18.5316C8.6718 18.844 9.08601 19.0002 9.50037 19.0001C9.91462 19.0001 10.3291 18.8439 10.6519 18.5316L11.8116 17.4097C11.9367 17.2887 12.1073 17.2334 12.2797 17.2576L13.8773 17.4836C14.7671 17.6095 15.5853 17.0148 15.7405 16.1299L16.0193 14.5406C16.0494 14.3692 16.1548 14.224 16.3086 14.1424L17.7339 13.3862C18.5275 12.9651 18.8401 12.003 18.4456 11.1958L17.737 9.74616ZM17.2203 12.4181L15.7949 13.1744C15.3405 13.4156 15.0288 13.8445 14.9399 14.3512L14.6612 15.9405C14.6087 16.2399 14.3319 16.441 14.0308 16.3985L12.4331 16.1725C11.9236 16.1004 11.4195 16.2643 11.0497 16.622L9.88994 17.7439C9.67152 17.9552 9.32926 17.9552 9.11076 17.7439L7.95106 16.622C7.63853 16.3197 7.22996 16.1558 6.80343 16.1558C6.72527 16.1558 6.64649 16.1613 6.5676 16.1725L4.96994 16.3985C4.66913 16.441 4.39211 16.2399 4.33956 15.9405L4.06076 14.3511C3.97185 13.8444 3.66021 13.4154 3.20573 13.1743L1.78037 12.4181C1.51185 12.2756 1.40608 11.9501 1.53957 11.677L2.2482 10.2274C2.47412 9.76512 2.47412 9.23498 2.2482 8.77275L1.53957 7.32308C1.40608 7.04999 1.51185 6.72451 1.78037 6.58205L3.20573 5.82576C3.66017 5.58459 3.97185 5.15568 4.06072 4.64892L4.33949 3.05961C4.39204 2.76021 4.6688 2.55908 4.96986 2.60161L6.56752 2.8276C7.07685 2.89971 7.5812 2.73579 7.95099 2.3781L9.11072 1.25621C9.32915 1.04492 9.67141 1.04492 9.8899 1.25621L11.0496 2.3781C11.4194 2.73583 11.9237 2.89971 12.4331 2.8276L14.0307 2.60161C14.3316 2.55904 14.6086 2.76021 14.6611 3.05961L14.9399 4.64896C15.0288 5.15572 15.3404 5.58467 15.7949 5.82576L17.2203 6.58205C17.4888 6.72451 17.5945 7.04999 17.4611 7.32308L16.7524 8.77271C16.5265 9.23491 16.5265 9.76512 16.7524 10.2273L17.4611 11.677C17.5946 11.9501 17.4888 12.2756 17.2203 12.4181Z" fill="#F44E51"/>
<path d="M13.5035 5.49642C13.2895 5.28244 12.9426 5.28244 12.7286 5.49642L5.49642 12.7286C5.28244 12.9426 5.28244 13.2895 5.49642 13.5035C5.6034 13.6105 5.74364 13.664 5.88384 13.664C6.02403 13.664 6.16431 13.6105 6.27126 13.5035L13.5034 6.27133C13.7175 6.05732 13.7175 5.71042 13.5035 5.49642Z" fill="#F44E51"/>
<path d="M7.30788 4.56873C6.2001 4.56873 5.29883 5.47 5.29883 6.57778C5.29883 7.68556 6.2001 8.58683 7.30788 8.58683C8.41566 8.58683 9.31693 7.68556 9.31693 6.57778C9.31693 5.47 8.41566 4.56873 7.30788 4.56873ZM7.30788 7.49096C6.80435 7.49096 6.3947 7.08131 6.3947 6.57774C6.3947 6.07421 6.80435 5.66456 7.30788 5.66456C7.81141 5.66456 8.2211 6.07421 8.2211 6.57774C8.22106 7.08131 7.81141 7.49096 7.30788 7.49096Z" fill="#F44E51"/>
<path d="M11.6917 10.4131C10.5839 10.4131 9.68262 11.3144 9.68262 12.4221C9.68262 13.5299 10.5839 14.4312 11.6917 14.4312C12.7994 14.4312 13.7007 13.5299 13.7007 12.4221C13.7007 11.3144 12.7994 10.4131 11.6917 10.4131ZM11.6917 13.3353C11.1881 13.3353 10.7784 12.9257 10.7784 12.4221C10.7784 11.9186 11.1881 11.509 11.6917 11.509C12.1952 11.509 12.6048 11.9186 12.6048 12.4221C12.6048 12.9257 12.1952 13.3353 11.6917 13.3353Z" fill="#F44E51"/>
</g>
<defs>
<clipPath id="clip0_2510_21218">
<rect width="19" height="19" fill="white"/>
</clipPath>
</defs>
</svg>
