<svg width="21" height="16" viewBox="0 0 21 16" fill="none" xmlns="http://www.w3.org/2000/svg">
<path d="M10.5 1.75C15.1266 1.75 18.0473 6.12456 19.0308 7.875C18.0456 9.6285 15.1255 14 10.5 14C5.87409 14 2.95378 9.65081 1.96941 7.90759C2.95313 6.14709 5.87409 1.75 10.5 1.75ZM10.5 0C3.5 0 0 7.91131 0 7.91131C0 7.91131 3.5 15.75 10.5 15.75C17.5 15.75 21 7.875 21 7.875C21 7.875 17.5 0 10.5 0Z" fill="#E61445"/>
<path d="M10.5 6.125C11.4649 6.125 12.25 6.91009 12.25 7.875C12.25 8.83991 11.4649 9.625 10.5 9.625C9.53509 9.625 8.75 8.83991 8.75 7.875C8.75 6.91009 9.53509 6.125 10.5 6.125ZM10.5 4.375C8.56712 4.375 7 5.94212 7 7.875C7 9.80809 8.56712 11.375 10.5 11.375C12.4331 11.375 14 9.80809 14 7.875C14 5.94212 12.4331 4.375 10.5 4.375Z" fill="#E61445"/>
</svg>
