<svg width="19" height="19" viewBox="0 0 19 19" fill="none" xmlns="http://www.w3.org/2000/svg">
<path d="M14.6649 16.0354C13.1205 17.0346 11.3288 17.5637 9.5 17.5607C4.76537 17.5607 0.826278 14.0857 0 9.5C0.377603 7.41381 1.40637 5.50806 2.9328 4.06708L0.185276 1.26732L1.42777 0L18.813 17.7336L17.5705 19L14.664 16.0354H14.6649ZM4.17442 5.3353C2.9811 6.44194 2.14983 7.89572 1.79305 9.5C2.06727 10.7238 2.6178 11.8655 3.40083 12.8341C4.18385 13.8027 5.17774 14.5714 6.30338 15.0792C7.42902 15.5869 8.65532 15.8197 9.88468 15.7588C11.114 15.698 12.3125 15.3452 13.3846 14.7287L11.6039 12.9124C10.8458 13.3994 9.948 13.6093 9.05765 13.5075C8.16731 13.4057 7.33731 12.9983 6.7038 12.3521C6.07029 11.7059 5.67087 10.8593 5.57106 9.95119C5.47126 9.04305 5.67698 8.12727 6.1545 7.35406L4.17442 5.3353ZM10.3026 11.585L7.45582 8.68139C7.29958 9.08705 7.2628 9.53041 7.35001 9.95708C7.43722 10.3838 7.64462 10.7752 7.94677 11.0834C8.24892 11.3916 8.63269 11.6031 9.051 11.6921C9.46931 11.781 9.90398 11.7435 10.3017 11.5841L10.3026 11.585ZM17.2333 13.6128L15.9768 12.332C16.5637 11.4787 16.9816 10.5167 17.207 9.5C16.9683 8.43395 16.5196 7.42853 15.8882 6.54485C15.2568 5.66117 14.4557 4.91769 13.5338 4.3596C12.6119 3.80151 11.5883 3.44046 10.5254 3.29841C9.46239 3.15636 8.3822 3.23627 7.35045 3.53328L5.96483 2.11997C7.0598 1.68111 8.25312 1.43929 9.5 1.43929C14.2346 1.43929 18.1737 4.91435 19 9.5C18.7309 10.9919 18.1262 12.3997 17.2333 13.6128ZM9.25677 5.47681C9.81568 5.44158 10.3755 5.52792 10.8993 5.73011C11.423 5.9323 11.8986 6.24572 12.2945 6.6496C12.6905 7.05347 12.9978 7.53858 13.196 8.07277C13.3942 8.60695 13.4789 9.17801 13.4444 9.74809L9.25589 5.47681H9.25677Z" fill="#B1B1B1"/>
</svg>
