<svg width="14" height="14" viewBox="0 0 14 14" fill="none" xmlns="http://www.w3.org/2000/svg">
<path d="M0 11.5254L0 12.3457L9.89844 12.3457V13.166H12.3594V12.3457H14V11.5254H12.3594V10.7051L9.89844 10.7051V11.5254L0 11.5254Z" fill="#2C2C31"/>
<path d="M9.89844 1.6543L0 1.6543L0 2.47461L9.89844 2.47461V3.29492L12.3594 3.29492V2.47461L14 2.47461V1.6543L12.3594 1.6543V0.833984L9.89844 0.833984V1.6543Z" fill="#2C2C31"/>
<path d="M0 4.93555L0 5.75586L6.07031 5.75586V6.57617H8.53125V5.75586L14 5.75586V4.93555L8.53125 4.93555V4.11523H6.07031V4.93555L0 4.93555Z" fill="#2C2C31"/>
<path d="M0 8.24414L0 9.06445H1.46705V9.88477H3.92798V9.06445L14 9.06445V8.24414L3.92798 8.24414L3.92798 7.42383H1.46705V8.24414H0Z" fill="#2C2C31"/>
</svg>
