<svg width="199" height="42" viewBox="0 0 199 42" fill="none" xmlns="http://www.w3.org/2000/svg">
<path d="M199 3.30859H0V0.00011301H199V3.30859Z" fill="url(#paint0_linear_2558_1387)"/>
<path d="M199 41.6279H0V38.3194H199V41.6279Z" fill="url(#paint1_linear_2558_1387)"/>
<path d="M19.1687 10.7939H6.30469V12.174H11.6304V29.4994H13.8158V12.174H19.1687V10.7939Z" fill="#7B52AB"/>
<path d="M29.9014 12.0609C32.5484 12.0609 33.933 13.5269 33.933 16.6083C33.933 20.1467 32.5212 21.2688 30.1593 21.2688H27.829V12.0609H29.9014ZM30.1593 10.7939H25.6436V29.4994H27.829V22.5629H30.6796L34.9691 29.4994H37.4714L32.7791 22.1602C34.6796 21.4136 36.2316 19.658 36.2316 16.5223C36.2316 12.8075 33.933 10.7939 30.1593 10.7939Z" fill="#7B52AB"/>
<path d="M55.4303 28.1194H46.9101V20.6942H54.1316V19.3684H46.9101V12.174H54.7968V10.7939H44.7246V29.4994H55.4303V28.1194Z" fill="#7B52AB"/>
<path d="M76.2038 10.7939H74.6246V25.5267L74.7106 26.2189L65.1543 10.7939H62.8828V29.4994H64.4665V14.45L64.3217 13.5541H64.3488L74.3079 29.4994H76.2038V10.7939Z" fill="#7B52AB"/>
<path d="M90.8823 12.174C94.8822 12.174 97.0133 14.735 97.0133 20.2055C97.0133 25.6443 94.8822 28.1194 90.9094 28.1194H87.371V12.174H90.8823ZM85.1855 29.4994H90.8823C96.2939 29.4994 99.3708 26.2778 99.3708 20.2055C99.3708 14.0744 96.2079 10.7939 90.8823 10.7939H85.1855V29.4994Z" fill="#7B52AB"/>
<path d="M135.804 10.7939H133.27L126.682 26.8207H126.655L120.062 10.7939H117.388L117.415 10.8799L117.356 10.7939L117.271 29.4994H118.854L118.913 13.4681L125.415 29.4994H127.171L133.646 13.4681H133.673L133.759 29.4994H135.89L135.804 10.7939Z" fill="#7B52AB"/>
<path d="M150.021 12.4636L153.274 22.5629H146.708L150.021 12.4636ZM149.129 10.7939L142.826 29.4994H144.351L146.306 23.7439H153.645L155.604 29.4994H157.876L151.69 10.7939H149.129Z" fill="#7B52AB"/>
<path d="M175.287 28.1194H166.971V10.7939H164.785V29.4994H175.287V28.1194Z" fill="#7B52AB"/>
<path d="M192.409 28.1194H184.093V10.7939H181.907V29.4994H192.409V28.1194Z" fill="#7B52AB"/>
<defs>
<linearGradient id="paint0_linear_2558_1387" x1="0" y1="3.30859" x2="198.889" y2="-3.33526" gradientUnits="userSpaceOnUse">
<stop stop-color="#00DDFF"/>
<stop offset="1" stop-color="#FF00D4"/>
</linearGradient>
<linearGradient id="paint1_linear_2558_1387" x1="0" y1="41.6279" x2="198.889" y2="34.9841" gradientUnits="userSpaceOnUse">
<stop stop-color="#00DDFF"/>
<stop offset="1" stop-color="#FF00D4"/>
</linearGradient>
</defs>
</svg>
