<svg width="16" height="16" viewBox="0 0 16 16" fill="none" xmlns="http://www.w3.org/2000/svg">
<path fill-rule="evenodd" clip-rule="evenodd" d="M6.74853 2C6.71586 1.99991 6.6835 2.00627 6.65331 2.01873C6.62311 2.03118 6.59567 2.04948 6.57257 2.07258C6.54948 2.09568 6.53117 2.12312 6.51872 2.15331C6.50626 2.18351 6.4999 2.21587 6.49999 2.24854L6.49999 2.25V3H9.49999V2.25L9.5 2.24854C9.50009 2.21587 9.49373 2.18351 9.48127 2.15331C9.46882 2.12312 9.45051 2.09568 9.42742 2.07258C9.40432 2.04949 9.37688 2.03118 9.34668 2.01873C9.31649 2.00627 9.28412 1.99991 9.25146 2L9.24999 2H6.74999L6.74853 2ZM5.49999 2.25064V3H3.50521C3.50206 2.99997 3.4989 2.99997 3.49573 3H2.5C2.22386 3 2 3.22386 2 3.5C2 3.77614 2.22386 4 2.5 4H3.03027L3.62581 13.5287C3.66925 14.3464 4.28598 15 5.12499 15H10.875C11.7219 15 12.3245 14.3406 12.3741 13.5306L12.3741 13.5305L12.9697 4H13.5C13.7761 4 14 3.77614 14 3.5C14 3.22386 13.7761 3 13.5 3H12.5043C12.5011 2.99997 12.4979 2.99997 12.4948 3H10.5V2.25075C10.5004 2.08651 10.4683 1.92381 10.4057 1.77198C10.343 1.61993 10.2508 1.48178 10.1345 1.36548C10.0182 1.24917 9.88006 1.15701 9.72801 1.09429C9.57622 1.03167 9.41356 0.999631 9.24936 1H6.75063C6.58643 0.999631 6.42377 1.03167 6.27198 1.09429C6.11992 1.15701 5.98177 1.24917 5.86547 1.36548C5.74916 1.48178 5.657 1.61993 5.59428 1.77198C5.53166 1.92378 5.49962 2.08644 5.49999 2.25064ZM11.9678 4H10.0018L9.99999 4H5.99999L5.99815 4H4.03222L4.62402 13.4688L4.62434 13.4743C4.64162 13.8108 4.86503 14 5.12499 14H10.875C11.1324 14 11.3548 13.8151 11.3759 13.4695L11.9678 4ZM6.24968 5.48216L6.49968 12.4822C6.50953 12.7581 6.29381 12.9898 6.01784 12.9997C5.74187 13.0095 5.51017 12.7938 5.50031 12.5178L5.25031 5.51785C5.24046 5.24188 5.45618 5.01018 5.73215 5.00032C6.00812 4.99047 6.23982 5.20619 6.24968 5.48216ZM10.2678 5.00032C10.5438 5.01018 10.7595 5.24188 10.7497 5.51785L10.4997 12.5178C10.4898 12.7938 10.2581 13.0095 9.98215 12.9997C9.70618 12.9898 9.49046 12.7581 9.50031 12.4822L9.75031 5.48216C9.76017 5.20619 9.99187 4.99047 10.2678 5.00032ZM7.99999 5C8.27614 5 8.49999 5.22386 8.49999 5.5V12.5C8.49999 12.7761 8.27614 13 7.99999 13C7.72385 13 7.49999 12.7761 7.49999 12.5V5.5C7.49999 5.22386 7.72385 5 7.99999 5Z" fill="white"/>
</svg>
