<svg width="20" height="20" viewBox="0 0 20 20" fill="none" xmlns="http://www.w3.org/2000/svg">
<g clip-path="url(#clip0_4_34475)">
<path d="M10.13 7.42236C9.00327 7.42236 8.08984 8.33573 8.08984 9.46248C8.08984 10.5892 9.00322 11.5026 10.13 11.5026C11.2567 11.5026 12.1701 10.5892 12.1701 9.46248C12.1701 8.33573 11.2567 7.42236 10.13 7.42236ZM10.13 10.5311C9.53977 10.5311 9.06133 10.0526 9.06133 9.46243C9.06133 8.87224 9.53977 8.3938 10.13 8.3938C10.7202 8.3938 11.1986 8.87224 11.1986 9.46243C11.1986 10.0526 10.7202 10.5311 10.13 10.5311Z" fill="#6F6E6E"/>
<path d="M18.2645 2.75876L5.00379 1.25301C4.48914 1.17984 3.96769 1.33008 3.57088 1.6659C3.17412 1.97355 2.91979 2.42959 2.86656 2.92881L2.62372 4.92035H1.87077C0.802134 4.92035 0.000656342 5.86751 0.000656342 6.93615V16.8695C-0.0262595 17.8885 0.778007 18.7365 1.79709 18.7634C1.82163 18.7641 1.84623 18.7642 1.87077 18.7639H15.2043C16.2729 18.7639 17.2444 17.9381 17.2444 16.8695V16.4809C17.5757 16.4169 17.89 16.2845 18.1673 16.0923C18.5608 15.761 18.8128 15.2918 18.8716 14.7808L19.9888 4.92035C20.1027 3.84925 19.3341 2.88571 18.2645 2.75876ZM16.2729 16.8695C16.2729 17.4038 15.7386 17.7924 15.2043 17.7924H1.87077C1.3881 17.8066 0.985338 17.4268 0.97116 16.9441C0.970416 16.9192 0.970741 16.8944 0.972136 16.8695V15.0723L4.73663 12.3036C5.18885 11.9564 5.82581 11.9872 6.24243 12.3764L8.88971 14.708C9.29173 15.0455 9.79778 15.2342 10.3227 15.2423C10.733 15.2473 11.1367 15.138 11.4885 14.9265L16.273 12.1578V16.8695H16.2729ZM16.2729 11.0163L10.9784 14.1008C10.5237 14.3701 9.94826 14.3214 9.5454 13.9794L6.87386 11.6235C6.10817 10.9656 4.98905 10.9252 4.178 11.5263L0.972136 13.8579V6.93615C0.972136 6.40183 1.33645 5.89183 1.87077 5.89183H15.2043C15.7751 5.91549 16.2361 6.36604 16.2729 6.93615V11.0163ZM19.0183 4.78921C19.018 4.79242 19.0177 4.79567 19.0173 4.79888L17.8758 14.6594C17.8778 14.915 17.7612 15.1572 17.5601 15.3151C17.4629 15.4123 17.2443 15.4608 17.2443 15.5094V6.93615C17.206 5.82972 16.311 4.9454 15.2042 4.92035H3.59515L3.81373 3.02596C3.86115 2.78065 3.9894 2.55835 4.17805 2.39449C4.39105 2.24722 4.64858 2.17856 4.90668 2.20017L18.1431 3.73024C18.6771 3.78096 19.069 4.25507 19.0183 4.78921Z" fill="#6F6E6E"/>
</g>
<defs>
<clipPath id="clip0_4_34475">
<rect width="20" height="20" fill="white"/>
</clipPath>
</defs>
</svg>
