<svg width="18" height="18" viewBox="0 0 18 18" fill="none" xmlns="http://www.w3.org/2000/svg">
<g clip-path="url(#clip0_2510_21176)">
<path d="M2.44401 10.9282L0.569076 9.80322C0.391331 9.69522 0.161099 9.75446 0.0545787 9.93221C-0.0519067 10.11 0.00508003 10.3402 0.182825 10.4467L2.05776 11.5717C2.11851 11.6084 2.18527 11.6249 2.25052 11.6249C2.37725 11.6249 2.50177 11.5597 2.57226 11.4427C2.67875 11.2649 2.62176 11.0347 2.44401 10.9282Z" fill="#9E9E9E"/>
<path d="M8.59626 3.39246C7.15332 2.95221 5.4531 2.88397 3.54589 3.1862C3.00742 3.27395 2.45692 3.12247 2.04219 2.77671L0.614958 1.58727C0.455212 1.45379 0.219707 1.47702 0.0869607 1.63526C-0.0457857 1.79426 -0.0240245 2.03051 0.134948 2.16325L1.56215 3.35273C2.14337 3.83647 2.90835 4.04572 3.66359 3.92721C5.45753 3.64073 7.04374 3.70295 8.37721 4.11096C8.41395 4.12147 8.45072 4.12671 8.48672 4.12671C8.64798 4.12671 8.79647 4.02248 8.8452 3.86048C8.90598 3.66245 8.79426 3.45321 8.59626 3.39246Z" fill="#9E9E9E"/>
<path d="M16.0176 11.0354L10.3725 6.09303C10.2158 5.95652 9.97878 5.97153 9.84304 6.12829C9.7058 6.28427 9.72155 6.52052 9.87753 6.65703L15.5249 11.6009C15.6681 11.7246 15.7499 11.9046 15.7499 12.0974C15.7499 12.4566 15.4574 12.7499 15.0974 12.7499H14.9969C14.8446 12.7499 14.6961 12.6966 14.5799 12.5999L14.5192 12.5496C14.5124 12.5444 14.5057 12.5384 14.4982 12.5324L10.3658 9.08844C10.206 8.95495 9.97052 8.97745 9.83703 9.13568C9.70429 9.29469 9.72605 9.53094 9.88502 9.66368L14.0317 13.1196C14.1712 13.2418 14.2499 13.4173 14.2499 13.6048C14.2499 13.9603 13.9604 14.2498 13.6049 14.2498H13.4939C13.3439 14.2498 13.1969 14.1973 13.0822 14.1013L12.294 13.4444C12.2887 13.4399 12.2835 13.4354 12.279 13.4316L8.8658 10.5876C8.70531 10.4541 8.46981 10.4774 8.33706 10.6349C8.20432 10.7939 8.22608 11.0301 8.38505 11.1629L11.8079 14.0158C11.9302 14.1215 11.9999 14.2753 11.9999 14.4381C11.9999 14.7478 11.7479 14.9998 11.4382 14.9998C11.1599 14.9998 10.8869 14.9038 10.6777 14.7366L8.86801 13.1969C8.71125 13.0634 8.47353 13.0821 8.33928 13.2396C8.20502 13.3978 8.22453 13.6341 8.38203 13.7683L10.2007 15.3156C10.5502 15.5953 10.9904 15.7498 11.4382 15.7498C12.0509 15.7498 12.5669 15.3276 12.7101 14.7591C12.9404 14.9151 13.2134 14.9998 13.4939 14.9998H13.6048C14.3743 14.9998 14.9998 14.3736 14.9998 13.6026C14.9998 13.5681 14.9991 13.5336 14.996 13.4999C14.9968 13.4999 14.9968 13.4999 14.9968 13.4999H15.0973C15.8705 13.4999 16.4997 12.8706 16.4997 12.0944C16.4998 11.6871 16.3236 11.3009 16.0176 11.0354Z" fill="#9E9E9E"/>
<path d="M10.3366 14.45C10.1904 14.3038 9.95262 14.3038 9.80637 14.45C9.66013 14.5963 9.66013 14.834 9.80637 14.9803C9.90386 15.0777 9.83112 15.449 9.63914 15.641C9.49739 15.7828 9.26041 15.7918 9.09989 15.632L8.13017 14.7268C7.97791 14.585 7.74166 14.5925 7.59992 14.7448C7.45891 14.8955 7.46643 15.1333 7.61792 15.2743L8.57864 16.1705C8.79165 16.3827 9.07437 16.4997 9.37438 16.4997C9.6744 16.4997 9.95712 16.3827 10.1694 16.1712C10.6149 15.725 10.7814 14.8948 10.3366 14.45Z" fill="#9E9E9E"/>
<path d="M17.9451 9.93238C17.8386 9.75537 17.6084 9.69463 17.4306 9.8034L15.5557 10.9284C15.3787 11.0349 15.321 11.2659 15.4275 11.4429C15.4979 11.5599 15.6217 11.6251 15.7492 11.6251C15.8152 11.6251 15.8819 11.6086 15.942 11.5718L17.8169 10.4469C17.9939 10.3404 18.0516 10.1094 17.9451 9.93238Z" fill="#9E9E9E"/>
<path d="M17.9098 1.63158C17.7748 1.47482 17.5386 1.45682 17.3811 1.59034L14.8386 3.76902C13.5607 3.94002 12.6405 3.63554 11.8252 3.36702C11.253 3.17803 10.7123 3.00028 10.125 3.00028C9.11255 3.00028 8.37531 3.48475 7.72434 3.91375C7.5826 4.00674 7.44384 4.09751 7.30737 4.17925C7.2811 4.19426 7.25713 4.21373 7.23537 4.2355L5.24867 6.22145C4.75217 6.71795 4.62994 7.47316 4.94419 8.10089C5.22167 8.65511 5.77966 9.00012 6.3999 9.00012H6.69988C7.07263 9.00012 7.43712 8.87114 7.72512 8.63715C7.87062 8.51941 8.03712 8.37991 8.2156 8.23065C8.85233 7.69741 9.81531 6.89267 10.257 6.72618C10.4505 6.65344 10.5488 6.43745 10.476 6.24318C10.4033 6.04968 10.1865 5.94917 9.99302 6.0242C9.47254 6.2192 8.69554 6.85066 7.73408 7.65466C7.55785 7.80165 7.3936 7.93889 7.25185 8.05441C7.09436 8.18266 6.90311 8.25016 6.69911 8.25016H6.39913C6.06463 8.25016 5.76391 8.06415 5.61464 7.76568C5.44589 7.42668 5.51188 7.0187 5.77888 6.7517L7.73334 4.79801C7.86535 4.71702 7.99883 4.62927 8.13608 4.53927C8.7263 4.15154 9.33681 3.75028 10.125 3.75028C10.5923 3.75028 11.055 3.90254 11.5912 4.07877C12.4635 4.3675 13.5494 4.72749 15.0569 4.49575C15.1259 4.48601 15.1911 4.45599 15.2444 4.41025L17.8693 2.16032C18.0268 2.02532 18.0448 1.7883 17.9098 1.63158Z" fill="#9E9E9E"/>
<path d="M3.39223 10.125C3.02025 10.125 2.67601 10.3095 2.4705 10.6185L2.06101 11.232C1.93951 11.4142 1.875 11.6264 1.875 11.8462V12.0165C1.875 12.6277 2.37224 13.1249 2.98271 13.1249C3.35469 13.1249 3.69893 12.9404 3.90444 12.6315L4.31393 12.018C4.43543 11.8357 4.49994 11.6235 4.49994 11.4037V11.2335C4.49994 10.6222 4.0027 10.125 3.39223 10.125ZM3.74997 11.403C3.74997 11.4742 3.72898 11.5432 3.68922 11.6025L3.27974 12.2167C3.21375 12.3164 3.10273 12.3757 2.98274 12.3757C2.78549 12.3757 2.625 12.2152 2.625 12.0172V11.8469C2.625 11.7757 2.64599 11.7067 2.68501 11.6482L3.09524 11.034C3.16123 10.9342 3.27225 10.875 3.39223 10.875C3.58949 10.875 3.74997 11.0355 3.74997 11.2327V11.403Z" fill="#9E9E9E"/>
<path d="M4.86668 10.8741C4.51945 10.8741 4.18793 11.0399 3.9802 11.3174L3.22123 12.3283C3.07875 12.5189 3 12.7558 3 12.9943V13.1413C3 13.7526 3.49724 14.2498 4.13323 14.2498C4.48046 14.2498 4.81198 14.084 5.01971 13.8073L5.77868 12.7963C5.92116 12.6058 5.99991 12.3688 5.99991 12.1303V11.9834C5.99991 11.3721 5.50267 10.8749 4.86668 10.8741ZM5.24991 12.1303C5.24991 12.2076 5.22442 12.2841 5.17865 12.3456L4.41968 13.3573C4.35218 13.4466 4.24569 13.4998 4.10767 13.4998C3.91042 13.4998 3.74993 13.3393 3.74993 13.1413V12.9944C3.74993 12.9171 3.77542 12.8406 3.82119 12.7791L4.58016 11.7674C4.64766 11.6781 4.75415 11.6249 4.89217 11.6249C5.08942 11.6249 5.24991 11.7854 5.24991 11.9834V12.1303Z" fill="#9E9E9E"/>
<path d="M6.36668 11.6241C6.01945 11.6241 5.68793 11.7899 5.4802 12.0674L4.72123 13.0783C4.57875 13.2689 4.5 13.5058 4.5 13.7443V13.8913C4.5 14.5026 4.99724 14.9998 5.63323 14.9998C5.98046 14.9998 6.31197 14.834 6.51971 14.5573L7.27867 13.5463C7.42116 13.3558 7.49991 13.1188 7.49991 12.8803V12.7334C7.49987 12.1221 7.00263 11.6249 6.36668 11.6241ZM6.7499 12.8803C6.7499 12.9576 6.72442 13.0341 6.67864 13.0956L5.91968 14.1073C5.85218 14.1966 5.74569 14.2498 5.60767 14.2498C5.41042 14.2498 5.24993 14.0893 5.24993 13.8913V13.7444C5.24993 13.6671 5.27542 13.5906 5.32119 13.5291L6.08016 12.5174C6.14766 12.4281 6.25414 12.3749 6.39216 12.3749C6.58942 12.3749 6.7499 12.5354 6.7499 12.7334V12.8803Z" fill="#9E9E9E"/>
<path d="M7.86667 12.3741C7.51944 12.3741 7.18793 12.5399 6.9802 12.8174L6.22123 13.8283C6.07875 14.0189 6 14.2558 6 14.4943V14.6413C6 15.2526 6.49724 15.7498 7.13323 15.7498C7.48046 15.7498 7.81197 15.584 8.0197 15.3066L8.77867 14.2956C8.92115 14.1051 8.9999 13.8681 8.9999 13.6296V13.4826C8.9999 12.8714 8.5034 12.3741 7.86667 12.3741ZM8.24993 13.6304C8.24993 13.7076 8.22445 13.7841 8.17867 13.8456L7.41971 14.8574C7.35221 14.9466 7.24572 14.9999 7.10771 14.9999C6.91045 14.9999 6.74997 14.8394 6.74997 14.6414V14.4944C6.74997 14.4172 6.77545 14.3407 6.82123 14.2791L7.58019 13.2674C7.64769 13.1781 7.75417 13.1249 7.89219 13.1249C8.08945 13.1249 8.24993 13.2854 8.24993 13.4834V13.6304Z" fill="#9E9E9E"/>
</g>
<defs>
<clipPath id="clip0_2510_21176">
<rect width="18" height="18" fill="white"/>
</clipPath>
</defs>
</svg>
