<svg width="16" height="16" viewBox="0 0 16 16" fill="none" xmlns="http://www.w3.org/2000/svg">
<mask id="mask0_2510_21072" style="mask-type:alpha" maskUnits="userSpaceOnUse" x="0" y="0" width="16" height="16">
<path fill-rule="evenodd" clip-rule="evenodd" d="M2 13.5V7.00005H3V13.5C3 13.7762 3.22386 14 3.5 14H12.5C12.7761 14 13 13.7762 13 13.5V7.00005H14V13.5C14 14.3285 13.3284 15 12.5 15H3.5C2.67157 15 2 14.3285 2 13.5Z" fill="black"/>
<path fill-rule="evenodd" clip-rule="evenodd" d="M13 2.50005V6.00005L11 4.00005V2.50005C11 2.2239 11.2239 2.00005 11.5 2.00005H12.5C12.7761 2.00005 13 2.2239 13 2.50005Z" fill="black"/>
<path fill-rule="evenodd" clip-rule="evenodd" d="M7.29289 1.50005C7.68342 1.10952 8.31658 1.10952 8.70711 1.50005L15.3536 8.14649C15.5488 8.34176 15.5488 8.65834 15.3536 8.8536C15.1583 9.04886 14.8417 9.04886 14.6464 8.8536L8 2.20715L1.35355 8.8536C1.15829 9.04886 0.841709 9.04886 0.646447 8.8536C0.451184 8.65834 0.451184 8.34176 0.646447 8.14649L7.29289 1.50005Z" fill="black"/>
</mask>
<g mask="url(#mask0_2510_21072)">
<rect width="16" height="16" fill="#2C2C31"/>
</g>
</svg>
