<svg width="14" height="27" viewBox="0 0 14 27" fill="none" xmlns="http://www.w3.org/2000/svg">
<path d="M10.3641 6.19965C9.96565 6.11517 9.60485 5.90505 9.33475 5.60019C9.06465 5.29534 8.89951 4.91186 8.86363 4.50615L8.85202 4.28214C8.84527 3.98922 8.72268 3.71093 8.51111 3.50824C8.29955 3.30555 8.01626 3.19499 7.72332 3.20079H7.19176V2.81879H7.60153C7.70719 2.81879 7.80852 2.77682 7.88323 2.7021C7.95795 2.62739 7.99992 2.52606 7.99992 2.4204C7.99992 2.31474 7.95795 2.21341 7.88323 2.13869C7.80852 2.06398 7.70719 2.02201 7.60153 2.02201H7.19176V0.398391C7.19176 0.292731 7.14978 0.191399 7.07507 0.116686C7.00036 0.0419732 6.89902 0 6.79336 0C6.6877 0 6.58637 0.0419732 6.51166 0.116686C6.43695 0.191399 6.39497 0.292731 6.39497 0.398391V2.02201H5.9852C5.87954 2.02201 5.77821 2.06398 5.70349 2.13869C5.62878 2.21341 5.58681 2.31474 5.58681 2.4204C5.58681 2.52606 5.62878 2.62739 5.70349 2.7021C5.77821 2.77682 5.87954 2.81879 5.9852 2.81879H6.39497V3.20079H5.86341C5.57363 3.19401 5.29282 3.30154 5.0817 3.50014C4.87057 3.69874 4.74609 3.97246 4.73516 4.26211L4.7231 4.5041C4.68757 4.91022 4.52255 5.2942 4.25233 5.59946C3.98211 5.90472 3.621 6.11511 3.22219 6.19965C1.83897 6.54842 0 7.26347 0 9.43619C4.14085e-05 9.50421 0.0174888 9.57109 0.0506821 9.63046C0.0838753 9.68984 0.13171 9.73973 0.189634 9.77539C2.56974 11.2394 3.50243 15.0244 2.72044 17.2927C2.14994 18.8901 1.8424 20.5694 1.80983 22.2653C1.8055 22.4065 1.82983 22.5471 1.88136 22.6787C1.93289 22.8102 2.01055 22.93 2.10965 23.0307C2.21818 23.141 2.34768 23.2286 2.49053 23.2882C2.63339 23.3477 2.78671 23.3781 2.94149 23.3776L6.39497 23.3685V26.2142C6.39497 26.3198 6.43695 26.4212 6.51166 26.4959C6.58637 26.5706 6.6877 26.6125 6.79336 26.6125C6.89902 26.6125 7.00036 26.5706 7.07507 26.4959C7.14978 26.4212 7.19176 26.3198 7.19176 26.2142V23.3685L10.6471 23.3767C10.8017 23.3771 10.9548 23.3466 11.0975 23.2871C11.2402 23.2275 11.3696 23.14 11.478 23.0298C11.5769 22.9293 11.6545 22.8099 11.706 22.6787C11.7575 22.5474 11.7818 22.4071 11.7776 22.2662C11.745 20.572 11.438 18.8943 10.8683 17.2984C10.0859 15.0184 11.0186 11.2383 13.3971 9.77539C13.455 9.73973 13.5029 9.68984 13.536 9.63046C13.5692 9.57109 13.5867 9.50421 13.5867 9.43619C13.5867 7.26347 11.7478 6.54842 10.3641 6.19965ZM10.1171 17.5634L10.121 17.5745C10.6613 19.0897 10.9521 20.6825 10.9822 22.2908C10.9828 22.3252 10.9764 22.3594 10.9634 22.3913C10.9504 22.4231 10.9309 22.452 10.9064 22.4761C10.8725 22.5098 10.8324 22.5364 10.7881 22.5544C10.7439 22.5723 10.6966 22.5813 10.6489 22.5808L6.79336 22.5717L2.94058 22.5808C2.89268 22.5814 2.84514 22.5725 2.80074 22.5545C2.75634 22.5365 2.71597 22.5099 2.68197 22.4761C2.65729 22.4517 2.63784 22.4225 2.62481 22.3903C2.61178 22.3582 2.60543 22.3237 2.60616 22.289C2.63637 20.6774 2.92799 19.0815 3.46965 17.5634C4.34838 15.0157 3.38678 10.9794 0.804522 9.22447C0.889892 8.08894 1.68531 7.40894 3.41683 6.97253C3.98108 6.8469 4.48998 6.54318 4.86841 6.10621C5.24685 5.66923 5.47476 5.12217 5.51851 4.54576L5.53126 4.28214C5.53812 4.20062 5.57678 4.12507 5.63889 4.07182C5.701 4.01857 5.78157 3.9919 5.86318 3.99757H7.7231C7.76502 3.99515 7.80701 4.00115 7.84657 4.01522C7.88614 4.0293 7.92249 4.05115 7.95347 4.0795C7.98445 4.10785 8.00944 4.14212 8.02695 4.18029C8.04447 4.21845 8.05417 4.25974 8.05547 4.30172L8.06776 4.54735C8.11177 5.1235 8.3398 5.67025 8.71823 6.10691C9.09665 6.54358 9.60541 6.84705 10.1694 6.97253C11.901 7.40894 12.6964 8.08803 12.782 9.22447C10.1999 10.9794 9.23835 15.0157 10.1171 17.5634Z" fill="#9E9E9E"/>
</svg>
