<svg width="13" height="13" viewBox="0 0 13 13" fill="none" xmlns="http://www.w3.org/2000/svg">
<path d="M6.74452 3.18523C4.98475 3.18523 3.56531 4.60466 3.56531 6.36443C3.56531 8.1242 4.98475 9.54363 6.74452 9.54363C8.50428 9.54363 9.92372 8.1242 9.92372 6.36443C9.92372 4.60466 8.50428 3.18523 6.74452 3.18523ZM6.74452 8.43133C5.60731 8.43133 4.67762 7.5044 4.67762 6.36443C4.67762 5.22445 5.60454 4.29753 6.74452 4.29753C7.88449 4.29753 8.81141 5.22445 8.81141 6.36443C8.81141 7.5044 7.88172 8.43133 6.74452 8.43133ZM10.7953 3.05518C10.7953 3.46745 10.4633 3.79672 10.0538 3.79672C9.64149 3.79672 9.31223 3.46469 9.31223 3.05518C9.31223 2.64567 9.64426 2.31364 10.0538 2.31364C10.4633 2.31364 10.7953 2.64567 10.7953 3.05518ZM12.9009 3.80779C12.8539 2.81446 12.627 1.93457 11.8993 1.20964C11.1744 0.484701 10.2945 0.257813 9.30116 0.208008C8.2774 0.149902 5.20887 0.149902 4.1851 0.208008C3.19454 0.255046 2.31466 0.481934 1.58696 1.20687C0.859253 1.93181 0.635132 2.81169 0.585327 3.80502C0.527222 4.82878 0.527222 7.89731 0.585327 8.92107C0.632365 9.9144 0.859253 10.7943 1.58696 11.5192C2.31466 12.2442 3.19178 12.471 4.1851 12.5209C5.20887 12.579 8.2774 12.579 9.30116 12.5209C10.2945 12.4738 11.1744 12.2469 11.8993 11.5192C12.6242 10.7943 12.8511 9.9144 12.9009 8.92107C12.959 7.89731 12.959 4.83155 12.9009 3.80779ZM11.5783 10.0195C11.3625 10.5619 10.9447 10.9797 10.3996 11.1983C9.58339 11.522 7.64654 11.4473 6.74452 11.4473C5.8425 11.4473 3.90288 11.5192 3.0894 11.1983C2.54708 10.9824 2.12927 10.5646 1.91069 10.0195C1.58696 9.2033 1.66166 7.26645 1.66166 6.36443C1.66166 5.46241 1.58972 3.52279 1.91069 2.70931C2.12651 2.16699 2.54431 1.74919 3.0894 1.5306C3.90564 1.20687 5.8425 1.28158 6.74452 1.28158C7.64654 1.28158 9.58615 1.20964 10.3996 1.5306C10.942 1.74642 11.3598 2.16423 11.5783 2.70931C11.9021 3.52556 11.8274 5.46241 11.8274 6.36443C11.8274 7.26645 11.9021 9.20607 11.5783 10.0195Z" fill="#2E2B2B"/>
</svg>
