<svg width="20" height="20" viewBox="0 0 20 20" fill="none" xmlns="http://www.w3.org/2000/svg">
<rect width="20" height="20" fill="white"/>
<path d="M16.7663 3.32611C16.3753 2.90569 15.9111 2.57219 15.4002 2.34465C14.8893 2.11711 14.3417 2 13.7887 2C13.2357 2 12.6881 2.11711 12.1772 2.34465C11.6663 2.57219 11.2021 2.90569 10.8112 3.32611L9.9998 4.19821L9.18843 3.32611C8.39874 2.4773 7.32768 2.00044 6.21089 2.00044C5.09409 2.00044 4.02303 2.4773 3.23334 3.32611C2.44365 4.17492 2 5.32616 2 6.52656C2 7.72696 2.44365 8.87819 3.23334 9.727L4.0447 10.5991L9.9998 17L15.9549 10.5991L16.7663 9.727C17.1574 9.30679 17.4677 8.80785 17.6794 8.25871C17.891 7.70957 18 7.12097 18 6.52656C18 5.93214 17.891 5.34355 17.6794 4.7944C17.4677 4.24526 17.1574 3.74633 16.7663 3.32611Z" fill="#2C2C31" stroke="#2C2C31" stroke-width="1.33333" stroke-linecap="round" stroke-linejoin="round"/>
</svg>
