<svg width="149" height="35" viewBox="0 0 149 35" fill="none" xmlns="http://www.w3.org/2000/svg">
<g clip-path="url(#clip0_2_9338)">
<path fill-rule="evenodd" clip-rule="evenodd" d="M139.196 22.5437L139.536 22.0513C140.06 21.3157 140.584 20.5742 141.133 19.8564L142.599 17.7267L142.951 17.2522C142.504 16.7479 142.331 16.1369 142.527 15.425C142.825 14.375 143.94 13.2598 145.049 13.2242C145.943 13.1886 146.419 13.77 146.169 14.6598C145.966 15.3776 145.424 16.1962 144.965 16.8725C145.609 17.3293 146.354 17.9284 146.539 18.67C146.652 19.1149 146.574 19.5717 146.449 20.0047C146.115 21.2089 145.239 22.514 144.572 23.5462C144 24.4717 143.445 25.4149 142.867 26.3344L141.937 27.7996C141.782 28.0488 141.622 28.3691 141.538 28.6539C141.538 28.6657 141.532 28.6954 141.532 28.7073C141.538 28.7132 141.55 28.7132 141.556 28.7132C142.098 28.6954 143.046 27.9183 143.439 27.5564C144.774 26.2098 145.925 24.614 147.033 23.0717L147.665 22.2352L149.066 22.6564L148.16 23.8903C147.111 25.32 146.109 26.714 144.905 28.0072C143.97 29.0098 142.456 30.1428 141.049 30.1903C139.369 30.2496 138.349 28.8556 138.808 27.2064C139.023 26.4471 139.482 25.6166 139.923 24.97C140.519 24.0683 141.103 23.1666 141.723 22.2767C142.229 21.5352 142.748 20.7759 143.201 19.9928C143.421 19.6013 143.678 19.1386 143.797 18.7056C143.833 18.581 143.845 18.4861 143.839 18.4089L143.719 18.581L142.319 20.6691L140.763 22.7098L140.114 23.653L140.066 23.6352L139.738 24.092C139.005 25.0708 138.266 26.0437 137.485 26.9869C136.943 27.6454 136.377 28.2979 135.763 28.8852C134.976 29.6445 134.106 30.303 133.003 30.4573C132.872 30.475 132.741 30.4869 132.604 30.4928C131.138 30.5403 130.482 29.7869 130.351 28.6301C129.594 29.431 128.694 30.2496 127.717 30.4928C127.478 30.5522 127.234 30.5818 126.984 30.5878C126.382 30.6115 125.78 30.4632 125.321 30.042C124.32 29.1225 124.504 27.4496 124.832 26.2632C125.297 24.6318 126.197 23.042 127.204 21.7013C128.653 19.7793 131.448 17.0208 133.975 16.9318C134.893 16.9022 135.364 17.3234 135.596 17.9878L136.156 17.0742L136.407 17.0979C136.937 17.1573 137.36 17.1632 137.891 17.1454C138.349 17.1276 138.683 17.1039 139.13 17.003L140.024 16.8132L138.999 18.575C138.481 19.4886 137.962 20.4022 137.42 21.3098L137.414 21.3217L137.408 21.3276C137.026 21.9149 136.687 22.5318 136.329 23.1369L136.323 23.1428C135.65 24.2166 134.982 25.3022 134.374 26.4174L134.368 26.4234C134.058 26.9573 133.742 27.4911 133.403 28.0072C133.272 28.2208 133.105 28.5174 133.033 28.7547C133.003 28.8615 133.218 28.8615 133.272 28.8556C133.945 28.8318 134.768 28.025 135.209 27.5683C135.781 26.975 136.311 26.3225 136.824 25.67C137.569 24.7208 138.284 23.742 138.993 22.7632L139.154 22.5318L139.196 22.5437ZM57.806 22.692L58.1636 22.2056C58.712 21.4818 59.2662 20.7462 59.8384 20.0403L61.3701 17.9284L61.7396 17.4598C61.2748 16.9615 61.09 16.3564 61.2986 15.6564C61.6085 14.6123 62.7826 13.5149 63.9448 13.4734C64.8806 13.4437 65.3812 14.0132 65.119 14.8971C64.9044 15.603 64.3322 16.4217 63.8554 17.0801C64.5289 17.5369 65.3157 18.1242 65.5064 18.8598C65.6256 19.3047 65.5421 19.7556 65.417 20.1827C65.0594 21.375 64.1475 22.6683 63.4442 23.6827C62.8482 24.6022 62.2641 25.5335 61.6562 26.4471L60.6788 27.8945C60.5238 28.1378 60.351 28.4581 60.2616 28.7369C60.2616 28.7488 60.2556 28.7784 60.2556 28.7962C60.2616 28.7962 60.2735 28.7962 60.2794 28.7962C60.8516 28.7784 61.8469 28.0132 62.2582 27.6573C63.6528 26.3225 64.8627 24.7386 66.0249 23.214L66.6864 22.3895L68.1526 22.8047L67.205 24.0267C66.1024 25.4386 65.0534 26.8208 63.7899 28.0962C62.8065 29.0869 61.2271 30.214 59.749 30.2615C57.9848 30.3208 56.918 28.9386 57.4008 27.3073C57.6272 26.5539 58.104 25.7293 58.5689 25.0945C59.1888 24.2047 59.8086 23.3089 60.4523 22.431C60.9887 21.6954 61.531 20.942 62.0019 20.1708C62.2343 19.7852 62.5025 19.3225 62.6336 18.8954C62.6694 18.7767 62.6813 18.6818 62.6754 18.6047L62.5502 18.7708L61.0781 20.8412L59.451 22.8581L58.7716 23.7954L58.712 23.7776C57.806 24.9522 56.9061 26.0556 55.8571 27.1352C54.1943 28.8437 51.8282 30.5225 49.313 30.6056C47.09 30.6827 45.7609 29.4073 45.8086 27.5623C44.1517 29.2411 41.8273 30.8547 39.3598 30.9378C36.6957 31.0267 35.319 29.1878 36.0461 26.7437C36.5884 24.9403 37.84 23.1369 39.1095 21.7369C40.6412 20.0403 43.5497 17.5369 46.0112 17.4539C48.121 17.3827 48.9018 18.9844 48.3654 20.7996C47.7038 23.0064 45.7132 25.1123 43.6153 26.1445C42.2743 26.8386 41.1002 27.064 39.6221 27.2361C39.4433 27.5861 39.2824 27.9301 39.1691 28.3157C39.0976 28.5589 38.9426 29.164 39.1512 29.3895C39.2824 29.5259 39.5744 29.5378 39.7472 29.5318C42.5961 29.4369 45.6774 25.7649 47.227 23.8013L47.2628 23.7539C47.7873 22.9234 48.4012 22.1344 49.0627 21.4047C50.5944 19.7081 53.5029 17.2047 55.9644 17.1217C58.0742 17.0505 58.855 18.6522 58.3186 20.4674C57.657 22.6742 55.6664 24.7801 53.5685 25.8183C52.2275 26.5064 51.0534 26.7318 49.5753 26.9039C49.4024 27.2539 49.2356 27.5979 49.1223 27.9835C49.0508 28.2267 48.8958 28.8318 49.1044 29.0573C49.2356 29.1937 49.5276 29.2056 49.7004 29.1996C52.5493 29.1047 55.6306 25.4327 57.1802 23.4691L57.7584 22.6801L57.806 22.692ZM27.0346 32.1242C27.5769 31.175 28.1372 30.2318 28.7272 29.3064C30.6642 26.2573 32.8634 23.4454 35.2296 20.6928C37.7745 17.7386 40.4982 14.8971 43.3948 12.2573C45.8741 10.003 48.5561 7.81996 51.405 6.00471C54.2122 4.21912 58.8312 1.77505 62.2641 1.66234C63.1164 1.63268 64.3203 1.82251 64.672 2.69454C64.7793 2.96742 64.7793 3.2581 64.6958 3.53098C64.3501 4.69963 62.8124 5.542 61.6085 5.58352C60.941 5.60725 60.041 5.32844 59.6775 4.75895L59.3378 4.21319L59.3318 4.20132C59.2484 4.04115 59.1232 3.99963 58.9325 4.00556C58.3186 4.02335 56.9955 4.60471 56.4352 4.8598C55.0883 5.47081 53.7592 6.18861 52.5016 6.95979C49.2475 8.94708 46.488 11.2844 43.7226 13.8708C41.8154 15.6505 39.9678 17.4835 38.2096 19.4056C36.6898 21.0666 35.2474 22.7869 33.8528 24.5488C32.631 26.103 31.4569 27.681 30.396 29.3361C29.496 30.742 28.6795 32.1954 27.8928 33.6666L27.8868 33.6725L27.1895 34.8352L26.1823 35.0606L26.0333 34.7878C24.5314 32.0293 24.2334 29.4725 25.1274 26.4708C25.4313 25.4505 25.8902 24.442 26.3611 23.4869C27.1001 21.992 27.9226 20.5208 28.7391 19.0615C29.8358 17.0979 30.9622 15.1462 31.8979 13.0996C32.3509 12.1208 32.7323 11.1064 33.0363 10.0742C33.5369 8.40132 33.6502 6.52674 32.6548 4.9903C31.0754 2.55217 27.4756 2.11319 24.7698 2.20217C21.6408 2.30302 18.5237 3.08607 15.6688 4.31403C10.0962 6.71064 4.36869 11.4267 2.62241 17.2759C1.87741 19.7615 1.90125 22.5437 3.55217 24.703C4.36273 25.7649 5.46532 26.5361 6.72289 27.0344C8.2248 27.6335 9.88169 27.8293 11.4968 27.7759C13.8153 27.6988 16.1278 27.0996 18.2376 26.1801C22.1772 24.4598 26.373 21.0844 27.6127 16.9259C28.0954 15.2945 27.9464 13.5564 26.8975 12.1564C25.7293 10.5962 23.7864 9.93183 21.8434 9.99708C19.4058 10.0801 17.3257 10.9937 15.3172 12.2632L14.9715 12.4827L14.149 11.3259L14.5245 11.1005C16.9085 9.69454 19.1018 8.73946 21.9149 8.64454C24.3287 8.56742 26.8379 9.29708 28.304 11.2606C29.6152 12.9988 29.7166 15.2056 29.1146 17.2225C28.3338 19.8445 26.4505 22.1937 24.3704 23.9911C20.8064 27.0759 16.2827 28.9623 11.4849 29.1225C9.43469 29.1937 7.33677 28.9208 5.44745 28.12C3.82633 27.4378 2.42573 26.3818 1.45425 24.9462C-0.154955 22.5734 -0.244355 19.7081 0.554285 17.0445C2.43169 10.7327 8.95789 5.6903 14.9536 3.15725C18.1124 1.82251 21.5692 0.962338 25.026 0.843694C27.2432 0.772507 29.5676 1.0098 31.6297 1.83437C33.3224 2.51064 34.8064 3.57844 35.7779 5.09708C37.2142 7.33946 37.1964 10.003 36.4573 12.4649C36.0461 13.853 35.4739 15.2115 34.8243 16.5106L34.8183 16.5166L32.2555 21.0666L29.7344 25.664C29.0014 26.9988 28.2444 28.375 27.708 29.8047C27.5471 30.2318 27.4041 30.6708 27.273 31.1157C27.1836 31.4064 27.0703 31.7801 27.0346 32.1242ZM40.4684 25.7471C41.714 25.581 42.5365 25.1064 43.5318 24.1217L43.5378 24.1157C44.5748 23.131 46.0648 20.9242 46.4642 19.5835C46.5416 19.3344 46.6072 18.8776 46.2138 18.8954C45.451 18.9191 44.0265 20.7225 43.6153 21.2327C42.5067 22.6742 41.3982 24.181 40.4684 25.7471ZM50.4216 25.4149C51.6672 25.2547 52.4897 24.7742 53.485 23.7895L53.491 23.7835C54.528 22.8047 56.018 20.592 56.4174 19.2513C56.4948 19.0022 56.5604 18.5513 56.167 18.5632C55.4042 18.5869 53.9738 20.3903 53.5685 20.9005C52.4599 22.342 51.3514 23.8488 50.4216 25.4149ZM75.2629 22.9767L75.251 23.0064L74.9112 23.5166L74.6848 23.8962C74.643 23.9793 74.5894 24.0445 74.5656 24.1276L74.4762 24.4361L74.1543 24.4301C73.457 24.4183 72.7716 24.3767 72.0743 24.4005C71.2757 24.4301 70.483 24.5072 69.6843 24.531L67.8904 24.6971L68.4566 23.9496C68.6652 23.6708 68.8916 23.3801 69.0585 23.0776C69.1539 22.8996 69.2433 22.7039 69.3327 22.52L69.44 22.2945L69.6963 22.2886C69.9585 22.2767 70.2207 22.2708 70.4889 22.2589H70.5008L72.2412 22.253C72.4676 22.2411 72.6882 22.2352 72.9146 22.2293C73.612 22.2056 74.2914 22.164 74.9828 22.1047L75.5907 22.0573L75.4238 22.6386C75.3821 22.775 75.3284 22.8581 75.2629 22.9767ZM100.128 4.55725C103.406 1.89963 106.63 0.547084 110.832 0.398779C113.943 0.291999 117.758 0.879287 119.677 3.70895C120.201 4.492 120.529 5.36997 120.684 6.30725C121.22 9.54624 120.315 13.1056 119.444 16.1962C119.426 16.2556 119.409 16.3089 119.397 16.3683C121.471 14.0488 123.604 11.8301 126.06 9.90217C129.761 7.00132 133.725 4.81827 138.326 3.89878L138.969 3.76827L138.57 5.192L138.338 5.24539C134.636 6.09369 133.2 7.26827 130.816 10.2878C129.91 11.4327 129.07 12.6666 128.265 13.8886C127.258 15.431 126.286 17.0089 125.363 18.6106C124.945 19.3225 124.54 20.0462 124.141 20.7759C123.277 22.3657 122.424 23.9852 121.679 25.6344C121.143 26.8267 120.666 28.0428 120.315 29.3064C120.017 30.3505 119.724 32.053 120.583 32.9191C121.03 33.37 121.685 33.4767 122.287 33.4589C123.509 33.4174 124.349 32.8657 125.291 32.0945L125.464 31.9462L126.716 32.4327L126.292 32.8835C124.975 34.2598 123.42 34.9301 121.536 34.9954C120.166 35.0428 118.765 34.681 117.782 33.6488C116.232 32.0234 116.309 29.52 116.882 27.4852C117.454 25.4445 118.395 23.4395 119.409 21.5886C120.756 19.1149 122.335 16.7479 123.968 14.47C124.707 13.4378 125.458 12.4174 126.269 11.4445C125.44 12.1445 124.647 12.8979 123.879 13.6632C122.889 14.6361 121.93 15.6445 120.994 16.6708C120.797 16.8844 120.607 17.0979 120.41 17.3174L120.404 17.3234C119.498 18.2962 118.628 19.3047 117.728 20.2895C117.15 20.9183 116.578 21.5649 115.988 22.1818C115.57 22.6149 115.129 23.0242 114.694 23.4395L113.645 24.4301L114.039 23.0242C114.182 22.5259 114.325 22.0276 114.462 21.5174L115.701 17.3174L116.268 15.1166C116.673 13.6691 117.066 12.1267 117.287 10.6259C117.096 10.8573 116.905 11.0886 116.721 11.3259C116.226 11.9784 115.797 12.6606 115.38 13.3666V13.3725C114.605 14.6183 113.919 15.9174 113.21 17.1988C112.692 18.1479 112.221 19.1149 111.714 20.07C110.534 22.2945 109.3 24.4539 107.751 26.4293C107.31 26.9928 106.851 27.5386 106.374 28.0725C102.655 32.2547 97.9764 34.8886 92.3979 35.0844C90.1927 35.1615 87.9636 34.8234 85.9432 33.892C84.1731 33.0734 82.6354 31.8335 81.5209 30.1962C79.4826 27.1827 79.268 23.4573 80.2395 20.0047C81.4196 15.8047 84.2863 12.2039 87.6597 9.60556C91.2476 6.83522 95.6461 5.0081 100.128 4.55725ZM98.4473 6.25386C94.758 7.08437 91.2118 8.83437 88.2795 11.2488C85.3174 13.6869 82.7844 16.9734 81.7235 20.7522C80.907 23.653 81.0977 26.7734 82.7785 29.3183C83.7201 30.7479 85.0373 31.8335 86.563 32.5573C88.3213 33.3878 90.2761 33.6962 92.2012 33.631C99.9432 33.3581 105.659 26.3818 109.491 20.2064L113.288 14.0725C114.533 12.0674 115.809 10.264 117.305 8.45471C117.168 3.90471 114.146 1.79285 109.849 1.94708C107.036 2.04793 104.729 2.94963 102.5 4.4742C104.932 4.50386 107.489 5.192 109.318 6.86488C111.226 8.59708 111.804 10.6081 111.655 12.9928C111.827 12.7852 112 12.5776 112.161 12.3581C112.561 11.8301 112.906 11.2666 113.258 10.703L113.395 10.4835L114.796 10.6852L114.492 11.2132C114.033 12.0081 113.544 12.7793 112.99 13.5089C112.447 14.2208 111.845 14.8734 111.214 15.5081C109.086 22.0988 102.971 26.975 96.1646 27.2183C93.5482 27.3073 90.5801 26.5301 89.1795 24.0445C88.3391 22.5556 88.3093 20.8352 88.7623 19.2098C89.0543 18.1895 89.4715 17.3945 90.0616 16.5166L90.2106 16.2971L91.641 16.5996L91.3191 17.1039C90.8423 17.8513 90.4847 18.5039 90.2463 19.364C89.8649 20.6988 89.8768 22.1284 90.6099 23.3386C91.7304 25.1835 94.0131 25.7352 95.9977 25.664C100.927 25.4861 106.082 21.8556 108.657 17.4539C106.767 18.6522 104.878 19.3759 102.5 19.4589C100.188 19.542 97.8036 18.7708 96.4209 16.7598C95.2527 15.0632 95.1395 12.9395 95.6938 10.9818C96.2302 9.06573 97.2195 7.65979 98.4473 6.25386ZM109.741 14.9327C110.302 12.72 110.385 11.0352 109.116 9.06573C107.596 6.68691 104.538 5.75556 101.886 5.85047C101.463 5.86234 101.052 5.88607 100.629 5.93352C99.0254 7.39285 97.7023 9.03607 97.1003 11.1895C96.6474 12.7793 96.707 14.5174 97.6725 15.8996C98.7989 17.525 100.772 18.1064 102.643 18.0412C105.474 17.9403 107.584 16.7301 109.741 14.9327ZM134.207 19.7852C134.297 19.4827 134.338 19.1267 134.273 18.8183C134.243 18.6818 134.172 18.4801 134.04 18.4208C134.005 18.403 133.969 18.3971 133.933 18.3971C133.367 18.4149 132.378 19.9217 132.097 20.331L132.091 20.3428C131.031 21.8022 130.041 23.3445 129.094 24.881C128.438 25.9369 127.723 27.153 127.383 28.3632C127.329 28.5412 127.21 29.0513 127.544 29.0098H127.562H127.58C128.73 28.9683 130.578 26.2928 131.144 25.4327L131.15 25.4208C131.865 24.4005 132.538 23.3327 133.129 22.2293C133.522 21.4996 133.981 20.592 134.207 19.7852Z" fill="#2C2C31"/>
</g>
<defs>
<clipPath id="clip0_2_9338">
<rect width="149" height="35" fill="white"/>
</clipPath>
</defs>
</svg>
