<svg width="21" height="21" viewBox="0 0 21 21" fill="none" xmlns="http://www.w3.org/2000/svg">
<path d="M9.77757 7.99978H13.3331C13.5689 7.99978 13.795 7.90613 13.9617 7.73943C14.1284 7.57273 14.222 7.34664 14.222 7.11089C14.222 6.87515 14.1284 6.64905 13.9617 6.48235C13.795 6.31566 13.5689 6.222 13.3331 6.222H11.5553V5.33312C11.5553 5.09737 11.4617 4.87128 11.295 4.70458C11.1283 4.53788 10.9022 4.44423 10.6665 4.44423C10.4307 4.44423 10.2046 4.53788 10.0379 4.70458C9.87122 4.87128 9.77757 5.09737 9.77757 5.33312V6.222C9.07032 6.222 8.39204 6.50296 7.89195 7.00305C7.39185 7.50315 7.1109 8.18143 7.1109 8.88867C7.1109 9.59592 7.39185 10.2742 7.89195 10.7743C8.39204 11.2744 9.07032 11.5553 9.77757 11.5553H11.5553C11.7911 11.5553 12.0172 11.649 12.1839 11.8157C12.3506 11.9824 12.4442 12.2085 12.4442 12.4442C12.4442 12.68 12.3506 12.9061 12.1839 13.0728C12.0172 13.2395 11.7911 13.3331 11.5553 13.3331H7.99979C7.76404 13.3331 7.53795 13.4268 7.37125 13.5935C7.20455 13.7602 7.1109 13.9863 7.1109 14.222C7.1109 14.4578 7.20455 14.6838 7.37125 14.8505C7.53795 15.0172 7.76404 15.1109 7.99979 15.1109H9.77757V15.9998C9.77757 16.2355 9.87122 16.4616 10.0379 16.6283C10.2046 16.795 10.4307 16.8887 10.6665 16.8887C10.9022 16.8887 11.1283 16.795 11.295 16.6283C11.4617 16.4616 11.5553 16.2355 11.5553 15.9998V15.1109C12.2626 15.1109 12.9409 14.8299 13.441 14.3298C13.9411 13.8297 14.222 13.1515 14.222 12.4442C14.222 11.737 13.9411 11.0587 13.441 10.5586C12.9409 10.0585 12.2626 9.77756 11.5553 9.77756H9.77757C9.54182 9.77756 9.31573 9.68391 9.14903 9.51721C8.98233 9.35051 8.88868 9.12442 8.88868 8.88867C8.88868 8.65292 8.98233 8.42683 9.14903 8.26013C9.31573 8.09343 9.54182 7.99978 9.77757 7.99978ZM10.6665 0.888672C8.73259 0.888672 6.84216 1.46213 5.23421 2.53652C3.62627 3.61092 2.37302 5.138 1.63297 6.92466C0.892908 8.71131 0.699276 10.6773 1.07655 12.574C1.45383 14.4707 2.38507 16.2129 3.75252 17.5804C5.11997 18.9478 6.8622 19.8791 8.75891 20.2563C10.6556 20.6336 12.6216 20.44 14.4082 19.6999C16.1949 18.9599 17.722 17.7066 18.7964 16.0987C19.8708 14.4907 20.4442 12.6003 20.4442 10.6664C20.4442 8.07322 19.4141 5.58621 17.5804 3.75252C15.7467 1.91883 13.2597 0.888672 10.6665 0.888672ZM10.6665 18.6664C9.0842 18.6664 7.53749 18.1973 6.22189 17.3182C4.9063 16.4392 3.88092 15.1897 3.27542 13.7279C2.66992 12.2661 2.51149 10.6576 2.82017 9.10573C3.12885 7.55388 3.89078 6.12842 5.0096 5.00959C6.12842 3.89077 7.55388 3.12885 9.10573 2.82017C10.6576 2.51149 12.2661 2.66991 13.7279 3.27541C15.1897 3.88091 16.4392 4.90629 17.3182 6.22189C18.1973 7.53748 18.6665 9.0842 18.6665 10.6664C18.6665 12.7882 17.8236 14.823 16.3233 16.3233C14.823 17.8236 12.7882 18.6664 10.6665 18.6664Z" fill="#FFB803"/>
</svg>
