<svg width="25" height="25" viewBox="0 0 25 25" fill="none" xmlns="http://www.w3.org/2000/svg">
<path d="M18.0742 24.3244H6.92557C6.56717 24.3244 6.22345 24.1821 5.97002 23.9286C5.71659 23.6752 5.57422 23.3315 5.57422 22.9731V2.02713C5.57422 1.66873 5.71659 1.32501 5.97002 1.07158C6.22345 0.818155 6.56717 0.675781 6.92557 0.675781H18.0742C18.4326 0.675781 18.7763 0.818155 19.0298 1.07158C19.2832 1.32501 19.4256 1.66873 19.4256 2.02713V22.9731C19.4256 23.3315 19.2832 23.6752 19.0298 23.9286C18.7763 24.1821 18.4326 24.3244 18.0742 24.3244ZM6.92557 1.35146C6.74637 1.35146 6.57451 1.42264 6.4478 1.54936C6.32108 1.67607 6.24989 1.84793 6.24989 2.02713V22.9731C6.24989 23.1523 6.32108 23.3241 6.4478 23.4508C6.57451 23.5776 6.74637 23.6488 6.92557 23.6488H18.0742C18.2534 23.6488 18.4253 23.5776 18.552 23.4508C18.6787 23.3241 18.7499 23.1523 18.7499 22.9731V2.02713C18.7499 1.84793 18.6787 1.67607 18.552 1.54936C18.4253 1.42264 18.2534 1.35146 18.0742 1.35146H6.92557Z" fill="#9E9E9E"/>
<path d="M19.0877 4.39247H5.91206C5.82246 4.39247 5.73653 4.35688 5.67317 4.29352C5.60981 4.23016 5.57422 4.14423 5.57422 4.05463C5.57422 3.96503 5.60981 3.8791 5.67317 3.81575C5.73653 3.75239 5.82246 3.7168 5.91206 3.7168H19.0877C19.1773 3.7168 19.2633 3.75239 19.3266 3.81575C19.39 3.8791 19.4256 3.96503 19.4256 4.05463C19.4256 4.14423 19.39 4.23016 19.3266 4.29352C19.2633 4.35688 19.1773 4.39247 19.0877 4.39247Z" fill="#9E9E9E"/>
<path d="M19.0877 19.9325H5.91206C5.82246 19.9325 5.73653 19.8969 5.67317 19.8336C5.60981 19.7702 5.57422 19.6843 5.57422 19.5947C5.57422 19.5051 5.60981 19.4191 5.67317 19.3558C5.73653 19.2924 5.82246 19.2568 5.91206 19.2568H19.0877C19.1773 19.2568 19.2633 19.2924 19.3266 19.3558C19.39 19.4191 19.4256 19.5051 19.4256 19.5947C19.4256 19.6843 19.39 19.7702 19.3266 19.8336C19.2633 19.8969 19.1773 19.9325 19.0877 19.9325Z" fill="#9E9E9E"/>
<path d="M12.4989 23.0368C12.2524 23.0368 12.0116 22.9637 11.8067 22.8268C11.6018 22.6899 11.4421 22.4953 11.3478 22.2677C11.2535 22.04 11.2288 21.7895 11.2769 21.5478C11.3249 21.3061 11.4436 21.0841 11.6179 20.9099C11.7921 20.7356 12.0141 20.6169 12.2558 20.5689C12.4975 20.5208 12.748 20.5455 12.9757 20.6398C13.2033 20.7341 13.3979 20.8938 13.5348 21.0987C13.6717 21.3036 13.7448 21.5444 13.7448 21.7909C13.7445 22.1212 13.6131 22.4379 13.3795 22.6715C13.1459 22.9051 12.8292 23.0365 12.4989 23.0368ZM12.4989 21.2209C12.3861 21.2209 12.2758 21.2544 12.182 21.3171C12.0882 21.3797 12.0151 21.4688 11.972 21.5731C11.9288 21.6773 11.9176 21.792 11.9396 21.9026C11.9616 22.0132 12.016 22.1148 12.0958 22.1946C12.1755 22.2743 12.2772 22.3286 12.3878 22.3506C12.4985 22.3725 12.6131 22.3612 12.7173 22.318C12.8215 22.2748 12.9106 22.2016 12.9732 22.1078C13.0358 22.014 13.0692 21.9037 13.0691 21.7909C13.069 21.6397 13.0088 21.4948 12.9019 21.3879C12.795 21.2811 12.65 21.221 12.4989 21.2209Z" fill="#9E9E9E"/>
<path d="M13.8521 2.95595H11.1494C11.0598 2.95595 10.9738 2.92036 10.9105 2.857C10.8471 2.79364 10.8115 2.70771 10.8115 2.61811C10.8115 2.52851 10.8471 2.44258 10.9105 2.37922C10.9738 2.31587 11.0598 2.28027 11.1494 2.28027H13.8521C13.9417 2.28027 14.0276 2.31587 14.091 2.37922C14.1543 2.44258 14.1899 2.52851 14.1899 2.61811C14.1899 2.70771 14.1543 2.79364 14.091 2.857C14.0276 2.92036 13.9417 2.95595 13.8521 2.95595Z" fill="#9E9E9E"/>
</svg>
