<svg width="21" height="21" viewBox="0 0 21 21" fill="none" xmlns="http://www.w3.org/2000/svg">
<g clip-path="url(#clip0_2_57982)">
<path d="M0.128174 10.1907L6.69067 3.62818C6.86159 3.45727 7.13844 3.45727 7.30931 3.62818C7.48022 3.7991 7.48022 4.07595 7.30931 4.24682L1.49362 10.0625H20.5625C20.8043 10.0625 21 10.2582 21 10.5C21 10.7419 20.8043 10.9375 20.5625 10.9375H1.49362L7.30931 16.7532C7.48022 16.9241 7.48022 17.201 7.30931 17.3718C7.22388 17.4573 7.1119 17.5 6.99997 17.5C6.88804 17.5 6.77611 17.4573 6.69063 17.3718L0.128132 10.8093C-0.042738 10.6385 -0.042738 10.3616 0.128174 10.1907Z" fill="black"/>
</g>
<defs>
<clipPath id="clip0_2_57982">
<rect width="21" height="21" fill="white" transform="matrix(-1 0 0 1 21 0)"/>
</clipPath>
</defs>
</svg>
