<svg width="18" height="18" viewBox="0 0 18 18" fill="none" xmlns="http://www.w3.org/2000/svg">
<path fill-rule="evenodd" clip-rule="evenodd" d="M0.376953 4.39286C0.376953 3.42404 1.14791 2.625 2.11559 2.625H14.3883C15.356 2.625 16.127 3.42404 16.127 4.39286V8.25C16.127 8.45708 15.959 8.625 15.752 8.625C15.5449 8.625 15.377 8.45708 15.377 8.25V4.39286C15.377 3.82318 14.9269 3.375 14.3883 3.375H2.11559C1.57704 3.375 1.12695 3.82318 1.12695 4.39286V11.3572C1.12695 11.9268 1.57704 12.375 2.11559 12.375H7.50195C7.70903 12.375 7.87695 12.5429 7.87695 12.75C7.87695 12.9571 7.70903 13.125 7.50195 13.125H2.11559C1.14791 13.125 0.376953 12.326 0.376953 11.3572V4.39286Z" fill="#9E9E9E"/>
<path fill-rule="evenodd" clip-rule="evenodd" d="M0.376953 5.25C0.376953 5.0429 0.544847 4.875 0.751953 4.875H15.752C15.959 4.875 16.127 5.0429 16.127 5.25C16.127 5.45711 15.959 5.625 15.752 5.625H0.751953C0.544847 5.625 0.376953 5.45711 0.376953 5.25Z" fill="#9E9E9E"/>
<path fill-rule="evenodd" clip-rule="evenodd" d="M1.87891 9C1.87891 8.79292 2.0468 8.625 2.25391 8.625H3.75391C3.96101 8.625 4.12891 8.79292 4.12891 9C4.12891 9.20707 3.96101 9.375 3.75391 9.375H2.25391C2.0468 9.375 1.87891 9.20707 1.87891 9Z" fill="#9E9E9E"/>
<path fill-rule="evenodd" clip-rule="evenodd" d="M1.87891 10.875C1.87891 10.6679 2.0468 10.5 2.25391 10.5H5.25391C5.46101 10.5 5.62891 10.6679 5.62891 10.875C5.62891 11.0821 5.46101 11.25 5.25391 11.25H2.25391C2.0468 11.25 1.87891 11.0821 1.87891 10.875Z" fill="#9E9E9E"/>
<path fill-rule="evenodd" clip-rule="evenodd" d="M13.502 10.125C11.638 10.125 10.127 11.636 10.127 13.5C10.127 15.364 11.638 16.875 13.502 16.875C15.3659 16.875 16.877 15.364 16.877 13.5C16.877 11.636 15.3659 10.125 13.502 10.125ZM9.37695 13.5C9.37695 11.2218 11.2238 9.375 13.502 9.375C15.7802 9.375 17.627 11.2218 17.627 13.5C17.627 15.7782 15.7802 17.625 13.502 17.625C11.2238 17.625 9.37695 15.7782 9.37695 13.5Z" fill="#9E9E9E"/>
<path fill-rule="evenodd" clip-rule="evenodd" d="M14.7387 12.8598C14.8852 12.7134 15.1226 12.7134 15.2691 12.8598C15.4155 13.0063 15.4155 13.2437 15.2691 13.3902L13.7691 14.8902C13.6226 15.0366 13.3852 15.0366 13.2387 14.8902L12.1137 13.7652C11.9673 13.6187 11.9673 13.3813 12.1137 13.2348C12.2602 13.0884 12.4976 13.0884 12.6441 13.2348L13.5039 14.0947L14.7387 12.8598Z" fill="#9E9E9E"/>
</svg>
