<svg width="16" height="16" viewBox="0 0 16 16" fill="none" xmlns="http://www.w3.org/2000/svg">
<path d="M8 16C12.4112 16 16 12.4112 16 8C16 3.58877 12.4112 0 8 0C3.58877 0 0 3.58877 0 8C0 12.4112 3.58877 16 8 16ZM8 0.713376C12.0179 0.713376 15.2866 3.98209 15.2866 8C15.2866 12.0179 12.0179 15.2866 8 15.2866C3.98209 15.2866 0.713376 12.0179 0.713376 8C0.713376 3.98209 3.98209 0.713376 8 0.713376Z" fill="#F44E51"/>
<path d="M6.02789 7.28108C6.84378 7.28108 7.505 6.61965 7.505 5.80397C7.5052 4.98809 6.84378 4.32666 6.02789 4.32666C5.21201 4.32666 4.55078 4.98809 4.55078 5.80377C4.55158 6.61926 5.21241 7.28008 6.02789 7.28108ZM6.02789 5.04004C6.44967 5.04004 6.79163 5.38199 6.79163 5.80377C6.79182 6.22574 6.44987 6.5677 6.02789 6.5677C5.60612 6.5677 5.26416 6.22574 5.26416 5.80377C5.26456 5.38219 5.60631 5.04063 6.02789 5.04004Z" fill="#F44E51"/>
<path d="M8.40527 10.2859C8.40527 11.1018 9.0667 11.763 9.88238 11.763C10.6983 11.763 11.3597 11.1018 11.3597 10.2859C11.3597 9.47002 10.6983 8.80859 9.88238 8.80859C9.0669 8.80959 8.40627 9.47042 8.40527 10.2859ZM10.6463 10.2859C10.6463 10.7077 10.3044 11.0496 9.88238 11.0496C9.4606 11.0496 9.11865 10.7077 9.11865 10.2859C9.11865 9.86413 9.4606 9.52217 9.88238 9.52197C10.3042 9.52257 10.6457 9.86413 10.6463 10.2859Z" fill="#F44E51"/>
<path d="M5.283 12.1643C5.448 12.272 5.66914 12.2254 5.77663 12.0604L10.8188 4.32911C10.8887 4.22222 10.8962 4.08628 10.8387 3.97242C10.781 3.85857 10.6669 3.78413 10.5396 3.77736C10.4122 3.77059 10.2908 3.8323 10.2213 3.93938L5.1791 11.6707C5.07141 11.8359 5.11799 12.0568 5.283 12.1643Z" fill="#F44E51"/>
</svg>
