<svg width="18" height="18" viewBox="0 0 18 18" fill="none" xmlns="http://www.w3.org/2000/svg">
<path d="M2.99922 7.63955H6.89922C7.06512 7.63955 7.19922 7.50515 7.19922 7.33955C7.19922 7.17395 7.06512 7.03955 6.89922 7.03955H2.99922C2.83332 7.03955 2.69922 7.17395 2.69922 7.33955C2.69922 7.50515 2.83332 7.63955 2.99922 7.63955Z" fill="#9E9E9E"/>
<path d="M10.7992 8.83984H2.99922C2.83332 8.83984 2.69922 8.97424 2.69922 9.13984C2.69922 9.30544 2.83332 9.43985 2.99922 9.43985H10.7992C10.9651 9.43985 11.0992 9.30544 11.0992 9.13984C11.0992 8.97424 10.9651 8.83984 10.7992 8.83984Z" fill="#9E9E9E"/>
<path d="M10.7992 10.6396H2.99922C2.83332 10.6396 2.69922 10.774 2.69922 10.9396C2.69922 11.1053 2.83332 11.2397 2.99922 11.2397H10.7992C10.9651 11.2397 11.0992 11.1053 11.0992 10.9396C11.0992 10.774 10.9651 10.6396 10.7992 10.6396Z" fill="#9E9E9E"/>
<path d="M16.2216 0.760746L5.979 0.739746C4.998 0.739746 4.2 1.53775 4.2 2.51875V4.05595L1.779 4.06105C0.798 4.06105 0 4.85905 0 5.84005V12.1823C0 13.1633 0.798 13.961 1.779 13.961H3.6V16.961C3.6 17.0849 3.6762 17.1962 3.792 17.2409C3.8271 17.2544 3.8637 17.261 3.9 17.261C3.9828 17.261 4.0641 17.2265 4.122 17.1629L7.0332 13.9604L12.021 13.94C13.002 13.94 13.8 13.142 13.8 12.1613V12.1274L15.378 13.8632C15.4359 13.9268 15.5172 13.9613 15.6 13.9613C15.6363 13.9613 15.6729 13.9547 15.708 13.9412C15.8238 13.8965 15.9 13.7852 15.9 13.6613V10.6613H16.221C17.202 10.6613 18 9.86335 18 8.88265V2.53975C18 1.55905 17.2023 0.761046 16.2216 0.760746ZM13.2 12.161C13.2 12.8111 12.6711 13.3397 12.0198 13.3397L6.8988 13.3607C6.8148 13.361 6.7344 13.3967 6.678 13.4588L4.2 16.1849V13.6607C4.2 13.4951 4.0659 13.3607 3.9 13.3607H1.779C1.1289 13.3607 0.6 12.8318 0.6 12.182V5.83975C0.6 5.18965 1.1289 4.66075 1.7796 4.66075L4.5 4.65505C4.5003 4.65505 4.5003 4.65505 4.5006 4.65505L12.021 4.63945C12.6711 4.63945 13.2 5.16835 13.2 5.81845V11.3507V12.161ZM17.4 8.88205C17.4 9.53215 16.8711 10.0607 16.221 10.0607H15.6C15.4341 10.0607 15.3 10.1951 15.3 10.3607V12.8849L13.8 11.2349V5.81875C13.8 4.83775 13.002 4.03975 12.0204 4.03975L4.8 4.05445V2.51845C4.8 1.86835 5.3289 1.33945 5.9784 1.33945L16.2207 1.36045C16.221 1.36045 16.221 1.36045 16.2213 1.36045C16.8714 1.36045 17.4003 1.88935 17.4003 2.53945V8.88205H17.4Z" fill="#9E9E9E"/>
</svg>
