<svg width="15" height="15" viewBox="0 0 15 15" fill="none" xmlns="http://www.w3.org/2000/svg">
<path d="M7.81319 5.1777H7.18553C6.90877 5.1777 6.68359 4.95252 6.68359 4.67573C6.68359 4.39896 6.90877 4.17378 7.18553 4.17378H8.44073C8.68342 4.17378 8.88018 3.97703 8.88018 3.73433C8.88018 3.49164 8.68342 3.29488 8.44073 3.29488H7.93875V2.79297C7.93875 2.55027 7.742 2.35352 7.4993 2.35352C7.25661 2.35352 7.05985 2.55027 7.05985 2.79297V3.30089C6.35717 3.36461 5.80469 3.95675 5.80469 4.67576C5.80469 5.43718 6.42414 6.05663 7.18553 6.05663H7.81319C8.08996 6.05663 8.31513 6.28181 8.31513 6.55857C8.31513 6.83534 8.08999 7.06051 7.81319 7.06051H6.55791C6.31521 7.06051 6.11846 7.25727 6.11846 7.49997C6.11846 7.74266 6.31521 7.93942 6.55791 7.93942H7.05985V8.44136C7.05985 8.68406 7.25661 8.88081 7.4993 8.88081C7.742 8.88081 7.93875 8.68406 7.93875 8.44136V7.93344C8.6415 7.86975 9.19404 7.2776 9.19404 6.55854C9.19404 5.79715 8.57461 5.1777 7.81319 5.1777Z" fill="#9E9E9E"/>
<path d="M9.85251 10.3555H5.14551C4.90281 10.3555 4.70605 10.5522 4.70605 10.7949C4.70605 11.0376 4.90281 11.2344 5.14551 11.2344H9.85251C10.0952 11.2344 10.292 11.0376 10.292 10.7949C10.292 10.5522 10.0952 10.3555 9.85251 10.3555Z" fill="#9E9E9E"/>
<path d="M12.6777 0H2.32226C2.07957 0 1.88281 0.196757 1.88281 0.439452V13.2661C1.88281 13.3826 1.92913 13.4944 2.01154 13.5768L3.30599 14.8713C3.47758 15.0429 3.75585 15.0429 3.92747 14.8713L4.91117 13.8876L5.89483 14.8713C5.97725 14.9537 6.08901 15 6.20559 15C6.32213 15 6.43393 14.9537 6.51634 14.8713L7.49998 13.8876L8.48368 14.8713C8.56609 14.9537 8.67786 15 8.7944 15C8.91097 15 9.02274 14.9537 9.10515 14.8713L10.0888 13.8876L11.0725 14.8713C11.1583 14.9571 11.2708 15 11.3832 15C11.4957 15 11.6082 14.9571 11.694 14.8713L12.9884 13.5768C13.0709 13.4944 13.1172 13.3826 13.1172 13.2661V0.439452C13.1171 0.196757 12.9204 0 12.6777 0ZM11.3832 13.939L10.3995 12.9553C10.3171 12.8729 10.2053 12.8266 10.0888 12.8266C9.97222 12.8266 9.86045 12.8729 9.77804 12.9553L8.79437 13.939L7.81067 12.9553C7.63908 12.7837 7.36082 12.7837 7.1892 12.9553L6.2055 13.939L5.22183 12.9553C5.13942 12.8729 5.02765 12.8266 4.91108 12.8266C4.79453 12.8266 4.68277 12.8729 4.60036 12.9553L3.61666 13.939L2.76166 13.084V0.878905H12.2382V13.084H12.2382L11.3832 13.939Z" fill="#9E9E9E"/>
</svg>
