<svg width="18" height="18" viewBox="0 0 18 18" fill="none" xmlns="http://www.w3.org/2000/svg">
<path d="M9 18C4.04441 18 0 13.9553 0 9C0 4.04441 4.04473 0 9 0C13.9556 0 18 4.04469 18 9C18 13.9556 13.9553 18 9 18ZM9 1.05469C4.61893 1.05469 1.05469 4.61893 1.05469 9C1.05469 13.3811 4.61893 16.9453 9 16.9453C13.3811 16.9453 16.9453 13.3811 16.9453 9C16.9453 4.61893 13.3811 1.05469 9 1.05469Z" fill="#9E9E9E"/>
<path d="M8.99902 11.6367C8.70779 11.6367 8.47168 11.4006 8.47168 11.1094V10.545C8.47168 9.60662 8.9767 8.73158 9.78965 8.2613C10.2778 7.97896 10.5811 7.45372 10.5811 6.89062C10.5811 6.01829 9.87136 5.30859 8.99902 5.30859C8.12669 5.30859 7.41699 6.01829 7.41699 6.89062C7.41699 7.18186 7.18088 7.41797 6.88965 7.41797C6.59841 7.41797 6.3623 7.18186 6.3623 6.89062C6.3623 5.43674 7.54514 4.25391 8.99902 4.25391C10.4529 4.25391 11.6357 5.43674 11.6357 6.89062C11.6357 7.82895 11.1307 8.70398 10.3178 9.17427C9.82962 9.45664 9.52637 9.98188 9.52637 10.545V11.1094C9.52637 11.4006 9.29026 11.6367 8.99902 11.6367Z" fill="#9E9E9E"/>
<path d="M8.99902 13.7461C9.29027 13.7461 9.52637 13.51 9.52637 13.2188C9.52637 12.9275 9.29027 12.6914 8.99902 12.6914C8.70778 12.6914 8.47168 12.9275 8.47168 13.2188C8.47168 13.51 8.70778 13.7461 8.99902 13.7461Z" fill="#9E9E9E"/>
</svg>
