<svg width="17" height="17" viewBox="0 0 17 17" fill="none" xmlns="http://www.w3.org/2000/svg">
<g clip-path="url(#clip0_2591_25981)">
<path d="M14.5208 17.0002H6.02083C5.04475 17.0002 4.25 16.2061 4.25 15.2293V4.60433C4.25 3.62754 5.04475 2.8335 6.02083 2.8335H14.5208C15.4969 2.8335 16.2917 3.62754 16.2917 4.60433V15.2293C16.2917 16.2061 15.4969 17.0002 14.5208 17.0002ZM6.02083 3.54183C5.43504 3.54183 4.95833 4.01854 4.95833 4.60433V15.2293C4.95833 15.8151 5.43504 16.2918 6.02083 16.2918H14.5208C15.1066 16.2918 15.5833 15.8151 15.5833 15.2293V4.60433C15.5833 4.01854 15.1066 3.54183 14.5208 3.54183H6.02083Z" fill="#9E9E9E"/>
<path d="M3.18717 14.875H2.47884C1.50276 14.875 0.708008 14.081 0.708008 13.1042V1.77083C0.708008 0.794042 1.50276 0 2.47884 0H10.9788C11.9549 0 12.7497 0.794042 12.7497 1.77083C12.7497 1.96633 12.591 2.125 12.3955 2.125C12.2 2.125 12.0413 1.96633 12.0413 1.77083C12.0413 1.18504 11.5646 0.708333 10.9788 0.708333H2.47884C1.89305 0.708333 1.41634 1.18504 1.41634 1.77083V13.1042C1.41634 13.69 1.89305 14.1667 2.47884 14.1667H3.18717C3.38267 14.1667 3.54134 14.3253 3.54134 14.5208C3.54134 14.7163 3.38267 14.875 3.18717 14.875Z" fill="#9E9E9E"/>
<path d="M13.1038 12.0418H7.43717C7.24167 12.0418 7.08301 11.8832 7.08301 11.6877C7.08301 11.4922 7.24167 11.3335 7.43717 11.3335H13.1038C13.2993 11.3335 13.458 11.4922 13.458 11.6877C13.458 11.8832 13.2993 12.0418 13.1038 12.0418Z" fill="#9E9E9E"/>
<path d="M13.1038 14.8748H7.43717C7.24167 14.8748 7.08301 14.7162 7.08301 14.5207C7.08301 14.3252 7.24167 14.1665 7.43717 14.1665H13.1038C13.2993 14.1665 13.458 14.3252 13.458 14.5207C13.458 14.7162 13.2993 14.8748 13.1038 14.8748Z" fill="#9E9E9E"/>
<path d="M13.1038 9.20833H7.43717C7.24167 9.20833 7.08301 9.04967 7.08301 8.85417C7.08301 8.65867 7.24167 8.5 7.43717 8.5H13.1038C13.2993 8.5 13.458 8.65867 13.458 8.85417C13.458 9.04967 13.2993 9.20833 13.1038 9.20833Z" fill="#9E9E9E"/>
<path d="M13.1038 6.37483H7.43717C7.24167 6.37483 7.08301 6.21617 7.08301 6.02067C7.08301 5.82517 7.24167 5.6665 7.43717 5.6665H13.1038C13.2993 5.6665 13.458 5.82517 13.458 6.02067C13.458 6.21617 13.2993 6.37483 13.1038 6.37483Z" fill="#9E9E9E"/>
</g>
<defs>
<clipPath id="clip0_2591_25981">
<rect width="17" height="17" fill="white"/>
</clipPath>
</defs>
</svg>
