<svg width="20" height="20" viewBox="0 0 20 20" fill="none" xmlns="http://www.w3.org/2000/svg">
<path d="M9.11057 7.33328H12.6661C12.9019 7.33328 13.128 7.23963 13.2947 7.07293C13.4614 6.90623 13.555 6.68014 13.555 6.44439C13.555 6.20864 13.4614 5.98255 13.2947 5.81585C13.128 5.64915 12.9019 5.5555 12.6661 5.5555H10.8884V4.66661C10.8884 4.43086 10.7947 4.20477 10.628 4.03807C10.4613 3.87137 10.2352 3.77772 9.99946 3.77772C9.76371 3.77772 9.53762 3.87137 9.37092 4.03807C9.20422 4.20477 9.11057 4.43086 9.11057 4.66661V5.5555C8.40333 5.5555 7.72505 5.83645 7.22496 6.33655C6.72486 6.83665 6.44391 7.51492 6.44391 8.22217C6.44391 8.92941 6.72486 9.60769 7.22496 10.1078C7.72505 10.6079 8.40333 10.8888 9.11057 10.8888H10.8884C11.1241 10.8888 11.3502 10.9825 11.5169 11.1492C11.6836 11.3159 11.7772 11.542 11.7772 11.7777C11.7772 12.0135 11.6836 12.2396 11.5169 12.4063C11.3502 12.573 11.1241 12.6666 10.8884 12.6666H7.3328C7.09705 12.6666 6.87096 12.7603 6.70426 12.927C6.53756 13.0937 6.44391 13.3198 6.44391 13.5555C6.44391 13.7912 6.53756 14.0173 6.70426 14.184C6.87096 14.3507 7.09705 14.4444 7.3328 14.4444H9.11057V15.3333C9.11057 15.569 9.20422 15.7951 9.37092 15.9618C9.53762 16.1285 9.76371 16.2222 9.99946 16.2222C10.2352 16.2222 10.4613 16.1285 10.628 15.9618C10.7947 15.7951 10.8884 15.569 10.8884 15.3333V14.4444C11.5956 14.4444 12.2739 14.1634 12.774 13.6633C13.2741 13.1632 13.555 12.485 13.555 11.7777C13.555 11.0705 13.2741 10.3922 12.774 9.8921C12.2739 9.39201 11.5956 9.11106 10.8884 9.11106H9.11057C8.87483 9.11106 8.64873 9.01741 8.48203 8.85071C8.31534 8.68401 8.22169 8.45792 8.22169 8.22217C8.22169 7.98642 8.31534 7.76033 8.48203 7.59363C8.64873 7.42693 8.87483 7.33328 9.11057 7.33328ZM9.99946 0.222168C8.0656 0.222168 6.17517 0.795624 4.56722 1.87002C2.95927 2.94442 1.70603 4.4715 0.965973 6.25815C0.225916 8.04481 0.0322836 10.0108 0.409561 11.9075C0.786839 13.8042 1.71808 15.5464 3.08553 16.9139C4.45298 18.2813 6.19521 19.2126 8.09191 19.5898C9.98862 19.9671 11.9546 19.7735 13.7413 19.0334C15.5279 18.2934 17.055 17.0401 18.1294 15.4322C19.2038 13.8242 19.7772 11.9338 19.7772 9.99994C19.7772 7.40672 18.7471 4.9197 16.9134 3.08601C15.0797 1.25232 12.5927 0.222168 9.99946 0.222168ZM9.99946 17.9999C8.41721 17.9999 6.87049 17.5308 5.5549 16.6517C4.23931 15.7727 3.21393 14.5232 2.60843 13.0614C2.00292 11.5996 1.8445 9.99107 2.15318 8.43922C2.46186 6.88737 3.22379 5.46191 4.34261 4.34309C5.46143 3.22427 6.88689 2.46235 8.43874 2.15366C9.99059 1.84498 11.5991 2.00341 13.0609 2.60891C14.5227 3.21441 15.7722 4.23979 16.6512 5.55538C17.5303 6.87098 17.9995 8.4177 17.9995 9.99994C17.9995 12.1217 17.1566 14.1565 15.6563 15.6568C14.156 17.1571 12.1212 17.9999 9.99946 17.9999Z" fill="#FFB803"/>
</svg>
