<svg width="16" height="16" viewBox="0 0 16 16" fill="none" xmlns="http://www.w3.org/2000/svg">
<g clip-path="url(#clip0_2591_25947)">
<path d="M13.6667 0H2.33334C1.04666 0 0 1.04666 0 2.33334V10.3333C0 11.62 1.04666 12.6667 2.33334 12.6667H10.1953L13.4307 15.9027C13.4947 15.966 13.58 16 13.6667 16C13.7093 16 13.7527 15.9914 13.794 15.9747C13.9187 15.9233 14 15.8013 14 15.6667V12.6433C15.1294 12.4807 16 11.5067 16 10.3333V2.33334C16 1.04666 14.9533 0 13.6667 0ZM15.3333 10.3333C15.3333 11.2527 14.5853 12 13.6667 12C13.4827 12 13.3333 12.1493 13.3333 12.3333V14.862L10.5693 12.0973C10.5067 12.0353 10.422 12 10.3333 12H2.33334C1.41469 12 0.666687 11.2527 0.666687 10.3333V2.33334C0.666687 1.414 1.41469 0.666687 2.33334 0.666687H13.6667C14.5853 0.666687 15.3333 1.41403 15.3333 2.33334V10.3333Z" fill="#9E9E9E"/>
</g>
<defs>
<clipPath id="clip0_2591_25947">
<rect width="16" height="16" fill="white"/>
</clipPath>
</defs>
</svg>
