<svg width="17" height="17" viewBox="0 0 17 17" fill="none" xmlns="http://www.w3.org/2000/svg">
<g clip-path="url(#clip0_2591_25938)">
<path d="M14.45 5.1001H10.625V5.9501H14.025V16.1501H2.975V5.9501H6.375V5.1001H2.55C2.31539 5.1001 2.125 5.29048 2.125 5.5251V16.5751C2.125 16.8097 2.31539 17.0001 2.55 17.0001H14.45C14.6846 17.0001 14.875 16.8097 14.875 16.5751V5.5251C14.875 5.29048 14.6846 5.1001 14.45 5.1001Z" fill="#9E9E9E"/>
<path d="M11.3533 7.7778C11.1892 7.61006 10.9198 7.60694 10.7523 7.77099L8.92427 9.55911V0.425C8.92427 0.190387 8.73388 0 8.49927 0C8.26466 0 8.07427 0.190387 8.07457 0.425V9.55882L6.2465 7.77069C6.07906 7.60664 5.80962 7.60976 5.64556 7.7775C5.4815 7.94551 5.48436 8.21439 5.65237 8.37844L8.20237 10.8729C8.36981 11.0373 8.63925 11.0341 8.80331 10.8667L11.3465 8.37874C11.5142 8.21469 11.5173 7.94581 11.3533 7.7778Z" fill="#9E9E9E"/>
</g>
<defs>
<clipPath id="clip0_2591_25938">
<rect width="17" height="17" fill="white"/>
</clipPath>
</defs>
</svg>
