<svg width="13" height="11" viewBox="0 0 13 11" fill="none" xmlns="http://www.w3.org/2000/svg">
<path d="M0.344234 5.27882L3.20144 6.34522L4.30736 9.90183C4.37812 10.1296 4.65667 10.2138 4.84155 10.0627L6.4342 8.7643C6.60115 8.62827 6.83894 8.62149 7.01341 8.74813L9.88599 10.8337C10.0838 10.9774 10.364 10.8691 10.4136 10.6301L12.5179 0.507922C12.572 0.246861 12.3155 0.0290753 12.0669 0.125217L0.340886 4.64878C0.0515115 4.76038 0.0540329 5.17007 0.344234 5.27882ZM4.12913 5.77755L9.71318 2.33833C9.81354 2.2767 9.91679 2.4124 9.83061 2.49234L5.22215 6.77612C5.06016 6.92691 4.95567 7.1287 4.92608 7.34772L4.76909 8.51109C4.7483 8.66642 4.5301 8.68184 4.48724 8.53151L3.88348 6.41007C3.81433 6.16811 3.9151 5.90965 4.12913 5.77755Z" fill="#2E2B2B"/>
</svg>
