<svg width="29" height="29" viewBox="0 0 29 29" fill="none" xmlns="http://www.w3.org/2000/svg">
<circle cx="14.5" cy="14.5" r="14.5" fill="#31B4D0"/>
<g clip-path="url(#clip0_2_10317)">
<rect width="11.6" height="11.6" transform="translate(7.97852 8.70032)" fill="#31B4D0"/>
<path d="M8.18341 14.2932L10.8563 15.2908L11.8908 18.618C11.957 18.8311 12.2176 18.9098 12.3906 18.7684L13.8805 17.5538C14.0366 17.4266 14.2591 17.4202 14.4223 17.5387L17.1096 19.4897C17.2946 19.6242 17.5567 19.5228 17.6031 19.2992L19.5717 9.83013C19.6223 9.58591 19.3824 9.38217 19.1498 9.47211L8.18027 13.7038C7.90957 13.8082 7.91193 14.1915 8.18341 14.2932ZM11.7241 14.7598L16.9479 11.5424C17.0418 11.4848 17.1384 11.6117 17.0578 11.6865L12.7466 15.6939C12.5951 15.835 12.4973 16.0238 12.4696 16.2286L12.3228 17.317C12.3033 17.4623 12.0992 17.4767 12.0591 17.3361L11.4943 15.3515C11.4296 15.1251 11.5239 14.8834 11.7241 14.7598Z" fill="white"/>
</g>
<defs>
<clipPath id="clip0_2_10317">
<rect width="11.6" height="11.6" fill="white" transform="translate(7.97852 8.70032)"/>
</clipPath>
</defs>
</svg>
