<svg width="17" height="17" viewBox="0 0 17 17" fill="none" xmlns="http://www.w3.org/2000/svg">
<g clip-path="url(#clip0_2_1600)">
<path d="M17 1.30053V5.88908C17 6.04555 16.8731 6.17241 16.7167 6.17241C16.5602 6.17241 16.4333 6.04555 16.4333 5.88908V1.30053C16.4333 1.14406 16.5602 1.0172 16.7167 1.0172C16.8731 1.0172 17 1.14406 17 1.30053ZM8.5 3.93149C10.1398 3.93149 11.4923 2.67778 11.6493 1.07854L13.4079 1.25442C13.5634 1.26982 13.7024 1.15638 13.718 1.00066C13.7335 0.844966 13.6199 0.706132 13.4642 0.690549L11.4093 0.485061C11.2421 0.468486 11.0978 0.599918 11.0978 0.766978C11.0978 2.19944 9.93239 3.36483 8.49993 3.36483C7.06747 3.36483 5.90208 2.19944 5.90208 0.766978C5.90208 0.610507 5.77522 0.483645 5.61875 0.483645C5.46228 0.483645 5.33541 0.610507 5.33541 0.766978C5.33549 2.51189 6.75509 3.93149 8.5 3.93149ZM3.14794 14.2851C3.14794 14.4416 3.2748 14.5685 3.43127 14.5685H13.5687C13.7252 14.5685 13.852 14.4416 13.852 14.2851V5.88908C13.852 5.73261 13.7252 5.60575 13.5687 5.60575C13.4122 5.60575 13.2854 5.73261 13.2854 5.88908V14.0018H3.71461V5.88908C3.71461 5.73261 3.58774 5.60575 3.43127 5.60575H0.566667V1.55695L3.77857 1.23579C3.93426 1.22021 4.04788 1.08137 4.03233 0.92568C4.01675 0.769988 3.87781 0.656407 3.72222 0.67192L0.255142 1.01861C0.110287 1.0331 0 1.15497 0 1.30053V5.88908C0 6.04555 0.126862 6.17241 0.283333 6.17241H3.14794V14.2851ZM16.669 16.0501C16.6429 15.9637 16.6431 15.9768 16.1024 15.4361C15.9918 15.3255 15.8124 15.3255 15.7018 15.4361C15.6007 15.5372 15.5775 15.7125 15.7139 15.849H2.72708C2.57061 15.849 2.44375 15.9759 2.44375 16.1323C2.44375 16.2888 2.57061 16.4157 2.72708 16.4157H15.7139C15.5796 16.55 15.5987 16.7255 15.7018 16.8285C15.8124 16.9392 15.9918 16.9392 16.1024 16.8285C16.4301 16.5008 16.603 16.3305 16.6242 16.3024C16.6785 16.2301 16.6952 16.1366 16.669 16.0501ZM1.65244 15.4361C1.54179 15.3255 1.36241 15.3255 1.25177 15.4361L0.755933 15.932C0.645256 16.0426 0.645256 16.222 0.755933 16.3326L1.25177 16.8285C1.30709 16.8838 1.37959 16.9115 1.45212 16.9115C1.70223 16.9115 1.8315 16.6068 1.65247 16.4278L1.35699 16.1323L1.65247 15.8368C1.76308 15.7262 1.76308 15.5468 1.65244 15.4361ZM14.9812 1.05591V12.4844C14.9812 12.6409 15.1081 12.7677 15.2646 12.7677C15.4211 12.7677 15.5479 12.6409 15.5479 12.4844V1.05591C15.607 1.11502 15.6714 1.15107 15.7604 1.15107C16.0105 1.15107 16.1398 0.846418 15.9608 0.667386C15.9442 0.650776 15.4623 0.167622 15.4441 0.152747C15.3871 0.105784 15.3119 0.0825508 15.2367 0.0899883C15.1081 0.10249 15.0977 0.13812 14.5684 0.667386C14.4578 0.778028 14.4578 0.957414 14.5684 1.06806C14.6695 1.16913 14.8448 1.19233 14.9812 1.05591ZM15.0642 14.4556C15.1749 14.5662 15.3543 14.5662 15.4649 14.4556L15.9607 13.9597C16.0714 13.8491 16.0714 13.6697 15.9607 13.5591C15.8501 13.4484 15.6707 13.4484 15.5601 13.5591L15.2646 13.8545L14.9691 13.559C14.8585 13.4484 14.6791 13.4484 14.5684 13.559C14.4578 13.6697 14.4578 13.849 14.5684 13.9597L15.0642 14.4556Z" fill="#0060D2"/>
</g>
<defs>
<clipPath id="clip0_2_1600">
<rect width="17" height="17" fill="white"/>
</clipPath>
</defs>
</svg>
