<svg width="20" height="20" viewBox="0 0 20 20" fill="none" xmlns="http://www.w3.org/2000/svg">
<g clip-path="url(#clip0_2510_21209)">
<path d="M19.9259 9.76327C19.7684 9.53409 15.9834 4.1665 9.99995 4.1665C4.86569 4.1665 0.29062 9.50327 0.0981168 9.73077C-0.0327056 9.88577 -0.0327056 10.1133 0.0981168 10.2691C0.29062 10.4966 4.86569 15.8334 9.99995 15.8334C15.1342 15.8334 19.7092 10.4966 19.9017 10.2691C20.0226 10.1258 20.0334 9.91827 19.9259 9.76327ZM9.99995 15C5.88407 15 1.97065 11.075 0.97649 9.99996C1.96901 8.92412 5.87825 4.99988 9.99995 4.99988C14.8158 4.99988 18.2151 8.91912 19.0451 9.97746C18.0867 11.0183 14.1508 15 9.99995 15Z" fill="#9E9E9E"/>
<path d="M10.0004 6.66663C8.16202 6.66663 6.66699 8.16165 6.66699 10C6.66699 11.8383 8.16202 13.3334 10.0004 13.3334C11.8387 13.3334 13.3337 11.8383 13.3337 10C13.3337 8.16165 11.8387 6.66663 10.0004 6.66663ZM10.0004 12.5001C8.62202 12.5001 7.50033 11.3784 7.50033 10C7.50033 8.62169 8.62202 7.5 10.0004 7.5C11.3787 7.5 12.5004 8.62169 12.5004 10C12.5004 11.3784 11.3787 12.5001 10.0004 12.5001Z" fill="#9E9E9E"/>
</g>
<defs>
<clipPath id="clip0_2510_21209">
<rect width="20" height="20" fill="white"/>
</clipPath>
</defs>
</svg>
