<svg width="20" height="19" viewBox="0 0 20 19" fill="none" xmlns="http://www.w3.org/2000/svg">
<ellipse cx="9.76337" cy="9.44995" rx="9.76337" ry="9.44995" fill="#2B2525"/>
<rect width="4.45557" height="15.4094" transform="matrix(0.718547 -0.695479 0.718547 0.695479 2.62891 5.64746)" fill="white"/>
<rect width="4.45559" height="15.4095" transform="matrix(0.71855 0.695475 -0.71855 0.695475 13.7031 2.54785)" fill="white"/>
<rect width="4.4556" height="9.93531" transform="matrix(0.718549 0.695477 -0.718549 0.695477 9.76953 6.35547)" fill="#5AFA5A"/>
<rect width="4.4556" height="9.93531" transform="matrix(0.718549 0.695477 -0.718549 0.695477 9.76953 6.35547)" fill="#5AFA5A"/>
<rect width="4.4556" height="9.93531" transform="matrix(0.718549 0.695477 -0.718549 0.695477 9.76953 6.35547)" fill="#5AFA5A"/>
<rect width="4.45558" height="9.93525" transform="matrix(0.718545 -0.695481 0.718545 0.695481 2.62891 5.6416)" fill="#5AFA5A"/>
<rect width="4.45558" height="9.93525" transform="matrix(0.718545 -0.695481 0.718545 0.695481 2.62891 5.6416)" fill="#5AFA5A"/>
<rect width="4.45558" height="9.93525" transform="matrix(0.718545 -0.695481 0.718545 0.695481 2.62891 5.6416)" fill="#5AFA5A"/>
</svg>
