<svg width="73" height="12" viewBox="0 0 73 12" fill="none" xmlns="http://www.w3.org/2000/svg">
<path d="M7.30389 5.55648L8.40649 7.27248L10.6302 3.80705V11.4808H12.5431V0.319336H10.5895L7.30389 5.55648Z" fill="#1A171B"/>
<path d="M1.9351 0.319336H0V11.4808H1.9203V3.80705L6.2752 10.6191L7.3852 8.88077L1.9351 0.319336Z" fill="#1A171B"/>
<path d="M24.0462 8.01905L25.8185 11.4808H28.1236L22.3368 0.319336H20.2574L20.2537 0.32305L23.1545 6.23991H19.3028L20.3055 4.31219L19.2584 2.21362L14.3818 11.4808H16.5389L18.363 8.02277L24.0462 8.01905Z" fill="#1A171B"/>
<path d="M40.9 0.319336H38.9797V5.73848L40.9 7.62533V0.319336Z" fill="#1A171B"/>
<path d="M31.6389 0.319336H29.689V11.4808H31.6093V3.13848L39.4718 11.4808H40.9V10.1251L31.6389 0.319336Z" fill="#1A171B"/>
<path d="M54.305 3.41708C53.3911 2.4885 51.9814 1.89422 50.4015 1.89422C47.8781 1.89422 45.795 3.40965 45.462 5.37451H43.3493C43.6268 2.32136 46.8162 0.0742188 50.4274 0.0742188C52.5734 0.0742188 54.5048 0.857933 55.8035 2.11708L54.305 3.41708Z" fill="#1A171B"/>
<path d="M50.224 9.9208C48.1187 9.9208 46.3242 8.8028 45.6582 7.2428H43.5048C44.2189 9.93566 47.0198 11.7297 50.3461 11.7297C51.1194 11.7297 52.0074 11.6554 52.7437 11.4771C54.4087 11.0722 56.2291 10.0137 56.2291 8.34223V5.37451H50.2055L50.2018 7.2428H54.3051V8.08966C54.3051 9.02566 52.8732 9.56794 52 9.75737C51.5301 9.86137 50.9233 9.9208 50.4386 9.9208H50.224Z" fill="#1A171B"/>
<path d="M72.0908 5.90943C72.0908 2.58143 69.0013 0 65.2088 0C61.5347 0 58.3083 2.46257 58.3083 5.73114C58.3083 8.814 60.8429 11.284 64.2542 11.674V9.80943C62.0194 9.44914 60.3323 7.81857 60.3323 5.85371C60.3323 3.62514 62.5041 1.82 65.1792 1.82C67.858 1.82 70.0262 3.62886 70.0262 5.85371C70.0262 7.80371 68.3649 9.42314 66.156 9.802V11.6703C69.4379 11.2803 72.0908 8.90314 72.0908 5.90943Z" fill="#1A171B"/>
</svg>
