<svg width="11" height="18" fill="none" xmlns="http://www.w3.org/2000/svg"><path d="M8.87 4.354v9.104c0 1.75-1.486 3.167-3.321 3.167-1.835 0-3.321-1.417-3.321-3.167V3.562c0-1.092.93-1.979 2.076-1.979 1.145 0 2.075.887 2.075 1.98v8.312c0 .435-.373.792-.83.792-.457 0-.83-.357-.83-.792v-7.52H3.473v7.52c0 1.092.93 1.98 2.076 1.98s2.076-.888 2.076-1.98V3.562c0-1.75-1.487-3.166-3.321-3.166C2.469.396.982 1.813.982 3.563v9.895c0 2.407 2.043 4.354 4.567 4.354s4.567-1.947 4.567-4.354V4.354H8.87z" fill="#fff"/></svg>