<svg width="24" height="24" fill="none" xmlns="http://www.w3.org/2000/svg"><path fill-rule="evenodd" clip-rule="evenodd" d="M2.25 12c0-5.383 4.367-9.75 9.75-9.75s9.75 4.367 9.75 9.75-4.367 9.75-9.75 9.75S2.25 17.383 2.25 12zM12 3.75A8.252 8.252 0 003.75 12 8.252 8.252 0 0012 20.25 8.252 8.252 0 0020.25 12 8.252 8.252 0 0012 3.75z" fill="#5EB586"/><path d="M11.976 17.222a.937.937 0 110-1.874.937.937 0 010 1.874zm1.019-9.429l-.27 5.72a.75.75 0 01-1.5 0l-.268-5.717v-.002a1.02 1.02 0 112.036 0h.002z" fill="#5EB586"/></svg>