<svg width="14" height="11" fill="none" xmlns="http://www.w3.org/2000/svg"><path d="M6.98.206C3.47-.776 0 1.876 0 5.5c0 3.63 3.477 6.274 6.98 5.293 3.515.985 6.978-1.677 6.978-5.293 0-3.62-3.467-6.277-6.978-5.294zM.821 5.5A4.68 4.68 0 015.574.825 5.498 5.498 0 002.965 5.5a5.498 5.498 0 002.609 4.675A4.68 4.68 0 01.82 5.5zm7.64 4.675A4.68 4.68 0 013.786 5.5 4.68 4.68 0 018.461.825 4.68 4.68 0 0113.137 5.5a4.68 4.68 0 01-4.676 4.675z" fill="#B1B1B1"/><path d="M7.556 5.78a.997.997 0 01-.76-.314c-.192-.213-.289-.496-.289-.85 0-.353.097-.634.29-.843a.988.988 0 01.76-.32c.308 0 .56.107.752.32.193.209.29.49.29.844 0 .353-.097.636-.29.85a.978.978 0 01-.753.313zM10.07 3.5h.718L7.907 7.72h-.718L10.07 3.5zM7.556 5.286a.365.365 0 00.32-.17c.08-.112.12-.278.12-.5 0-.22-.04-.387-.12-.5a.365.365 0 00-.32-.169.37.37 0 00-.32.175c-.08.113-.12.278-.12.495 0 .216.04.383.12.5a.377.377 0 00.32.169zm2.863 2.483c-.2 0-.382-.046-.542-.139a.986.986 0 01-.368-.41 1.358 1.358 0 01-.133-.614c0-.234.045-.438.133-.615a.946.946 0 01.368-.404c.16-.097.341-.145.542-.145.31 0 .56.107.753.32.197.209.296.49.296.844 0 .353-.099.636-.296.85a.978.978 0 01-.753.313zm0-.494a.365.365 0 00.32-.17c.08-.116.12-.282.12-.5 0-.216-.04-.381-.12-.494a.362.362 0 00-.32-.175.374.374 0 00-.32.17c-.08.112-.12.279-.12.5 0 .22.04.387.12.5a.377.377 0 00.32.169z" fill="#B1B1B1"/></svg>