<svg width="19" height="18" fill="none" xmlns="http://www.w3.org/2000/svg"><g clip-path="url(#clip0_2_1169)" stroke="#fff" stroke-width="1.333" stroke-linecap="round" stroke-linejoin="round"><path d="M6.915 16.5c.42 0 .76-.336.76-.75s-.34-.75-.76-.75a.756.756 0 00-.762.75c0 .414.341.75.762.75zm8.373 0c.42 0 .761-.336.761-.75s-.34-.75-.76-.75a.756.756 0 00-.762.75c0 .414.34.75.761.75zM.825.75H3.87l2.04 10.043c.07.345.26.655.538.876.279.22.627.338.984.331h7.4c.357.007.705-.11.983-.331.279-.221.47-.531.539-.877L17.572 4.5H4.63"/></g><defs><clipPath id="clip0_2_1169"><path fill="#fff" transform="translate(.064)" d="M0 0h18.27v18H0z"/></clipPath></defs></svg>