<svg width="20" height="17" fill="none" xmlns="http://www.w3.org/2000/svg"><path d="M15.416 2.125H13.75c-.23 0-.417.159-.417.354 0 .196.187.354.417.354h1.666c.23 0 .417.16.417.354v12.75c0 .195-.188.355-.417.355H4.583c-.23 0-.417-.16-.417-.355V3.188c0-.194.188-.354.417-.354H6.25c.23 0 .416-.158.416-.354 0-.195-.186-.354-.416-.354H4.583c-.69 0-1.25.477-1.25 1.063v12.75c0 .585.56 1.062 1.25 1.062h10.833c.69 0 1.25-.477 1.25-1.063V3.188c0-.585-.56-1.062-1.25-1.062z" fill="#9E9E9E"/><path d="M12.916 1.417h-1.25C11.666.635 10.92 0 10 0c-.92 0-1.667.635-1.667 1.417h-1.25c-.69 0-1.25.476-1.25 1.062v.708c0 .196.187.355.417.355h7.5c.23 0 .416-.159.416-.354v-.709c0-.586-.56-1.062-1.25-1.062zm.417 1.416H6.666V2.48c0-.195.188-.354.417-.354H8.75c.23 0 .416-.159.416-.354v-.354c0-.391.374-.709.834-.709.46 0 .833.318.833.709v.354c0 .195.187.354.417.354h1.666c.23 0 .417.16.417.354v.354zM6.25 9.208c.23 0 .416-.158.416-.354 0-.195-.186-.354-.416-.354-.23 0-.417.159-.417.354 0 .196.187.354.417.354zm0 2.125c.23 0 .416-.158.416-.354 0-.195-.186-.354-.416-.354-.23 0-.417.159-.417.354 0 .196.187.354.417.354zm0 2.125c.23 0 .416-.158.416-.354 0-.195-.186-.354-.416-.354-.23 0-.417.159-.417.354 0 .196.187.354.417.354zm7.5-4.958H7.917c-.23 0-.417.159-.417.354 0 .196.187.354.417.354h5.833c.23 0 .417-.158.417-.354 0-.195-.187-.354-.417-.354zm-7.5-1.417c.23 0 .416-.158.416-.354 0-.195-.186-.354-.416-.354-.23 0-.417.159-.417.354 0 .196.187.354.417.354zm7.5-.708H7.917c-.23 0-.417.159-.417.354 0 .196.187.354.417.354h5.833c.23 0 .417-.158.417-.354 0-.195-.187-.354-.417-.354zm0 4.25H7.917c-.23 0-.417.159-.417.354 0 .196.187.354.417.354h5.833c.23 0 .417-.158.417-.354 0-.195-.187-.354-.417-.354zm0 2.125H7.917c-.23 0-.417.159-.417.354 0 .196.187.354.417.354h5.833c.23 0 .417-.158.417-.354 0-.195-.187-.354-.417-.354z" fill="#9E9E9E"/></svg>