<svg width="16" height="16" fill="none" xmlns="http://www.w3.org/2000/svg"><mask id="a" style="mask-type:alpha" maskUnits="userSpaceOnUse" x="0" y="0" width="16" height="16"><path fill-rule="evenodd" clip-rule="evenodd" d="M6 12.5a.5.5 0 00.5.5h8a.5.5 0 00.5-.5v-9a.5.5 0 00-.5-.5h-8a.5.5 0 00-.5.5v2a.5.5 0 01-1 0v-2A1.5 1.5 0 016.5 2h8A1.5 1.5 0 0116 3.5v9a1.5 1.5 0 01-1.5 1.5h-8A1.5 1.5 0 015 12.5v-2a.5.5 0 011 0v2z" fill="#000"/><path fill-rule="evenodd" clip-rule="evenodd" d="M.146 8.354a.5.5 0 010-.708l3-3a.5.5 0 11.708.708L1.707 7.5H10.5a.5.5 0 010 1H1.707l2.147 2.146a.5.5 0 01-.708.708l-3-3z" fill="#000"/></mask><g mask="url(#a)"><path fill="#9E9E9E" d="M0 0h16v16H0z"/></g></svg>