<svg width="19" height="19" fill="none" xmlns="http://www.w3.org/2000/svg"><path d="M14.665 16.035A9.476 9.476 0 019.5 17.561C4.765 17.56.826 14.086 0 9.5a9.891 9.891 0 012.933-5.433l-2.748-2.8L1.428 0l17.385 17.734L17.571 19l-2.907-2.965zm-10.49-10.7A8.065 8.065 0 001.792 9.5 8.131 8.131 0 003.4 12.834a7.926 7.926 0 002.902 2.245 7.772 7.772 0 007.082-.35l-1.781-1.817a3.89 3.89 0 01-4.9-.56 4.095 4.095 0 01-.55-4.998l-1.98-2.019zm6.128 6.25L7.456 8.681a2.281 2.281 0 00-.106 1.276c.087.427.295.818.597 1.126a2.155 2.155 0 002.355.5v.002zm6.93 2.028l-1.256-1.281a8.086 8.086 0 001.23-2.832 8.144 8.144 0 00-1.319-2.955 7.966 7.966 0 00-2.354-2.185 7.758 7.758 0 00-6.183-.826L5.964 2.12A9.483 9.483 0 019.5 1.44c4.735 0 8.674 3.474 9.5 8.06a9.904 9.904 0 01-1.767 4.113zM9.257 5.477a3.881 3.881 0 011.642.253c.524.202 1 .516 1.396.92.396.403.703.889.901 1.423.198.534.283 1.105.248 1.675L9.256 5.477z" fill="#B1B1B1"/></svg>