<svg width="16" height="16" fill="none" xmlns="http://www.w3.org/2000/svg"><path d="M14.029 3.696H8.965a.765.765 0 01-.545-.228L6.84 1.803c-.38-.378-.9-.576-1.426-.573H1.97A1.974 1.974 0 000 3.201V12.8c0 1.087.884 1.971 1.971 1.971h12.067A1.973 1.973 0 0016 12.793V5.667a1.974 1.974 0 00-1.971-1.971zm.765 9.1a.766.766 0 01-.76.769H1.972a.767.767 0 01-.765-.766V3.2c0-.422.343-.765.765-.766H5.45a.76.76 0 01.528.21L7.55 4.302c.369.381.885.6 1.416.6h5.064c.422 0 .765.343.765.765v7.128z" fill="#B1B1B1"/></svg>