<svg width="199" height="42" fill="none" xmlns="http://www.w3.org/2000/svg"><path d="M199 3.309H0V0h199v3.31z" fill="url(#paint0_linear_2558_1387)"/><path d="M199 41.628H0v-3.309h199v3.309z" fill="url(#paint1_linear_2558_1387)"/><path d="M19.169 10.794H6.305v1.38h5.325v17.325h2.186V12.174h5.353v-1.38zm10.732 1.266c2.647 0 4.032 1.467 4.032 4.548 0 3.539-1.412 4.66-3.774 4.66h-2.33v-9.207h2.072zm.258-1.266h-4.515v18.705h2.185v-6.936h2.85l4.29 6.936h2.502L32.78 22.16c1.9-.746 3.453-2.502 3.453-5.638 0-3.714-2.299-5.728-6.073-5.728zM55.43 28.12h-8.52v-7.426h7.222v-1.326H46.91v-7.194h7.887v-1.38H44.725v18.705H55.43v-1.38zm20.774-17.326h-1.58v14.733l.087.692-9.557-15.425h-2.271v18.705h1.583V14.45l-.144-.896h.027L74.308 29.5h1.896V10.794zm14.678 1.38c4 0 6.131 2.561 6.131 8.032 0 5.438-2.13 7.913-6.104 7.913h-3.538V12.174h3.511zm-5.697 17.325h5.697c5.412 0 8.489-3.221 8.489-9.293 0-6.132-3.163-9.412-8.489-9.412h-5.697v18.705zm50.619-18.705h-2.534l-6.588 16.027h-.027l-6.593-16.027h-2.674l.027.086-.059-.086-.085 18.705h1.583l.059-16.03 6.502 16.03h1.756l6.475-16.03h.027l.086 16.03h2.131l-.086-18.705zm14.217 1.67l3.253 10.099h-6.566l3.313-10.1zm-.892-1.67l-6.303 18.705h1.525l1.955-5.755h7.339l1.959 5.755h2.272l-6.186-18.705h-2.561zm26.158 17.326h-8.316V10.793h-2.186v18.705h10.502v-1.38zm17.122 0h-8.316V10.793h-2.186v18.705h10.502v-1.38z" fill="#7B52AB"/><defs><linearGradient id="paint0_linear_2558_1387" x1="0" y1="3.309" x2="198.889" y2="-3.335" gradientUnits="userSpaceOnUse"><stop stop-color="#0DF"/><stop offset="1" stop-color="#FF00D4"/></linearGradient><linearGradient id="paint1_linear_2558_1387" x1="0" y1="41.628" x2="198.889" y2="34.984" gradientUnits="userSpaceOnUse"><stop stop-color="#0DF"/><stop offset="1" stop-color="#FF00D4"/></linearGradient></defs></svg>