<svg width="20" height="20" fill="none" xmlns="http://www.w3.org/2000/svg"><g clip-path="url(#clip0_4_34475)" fill="#6F6E6E"><path d="M10.13 7.422a2.04 2.04 0 100 4.08 2.04 2.04 0 000-4.08zm0 3.11a1.069 1.069 0 110-2.138 1.069 1.069 0 010 2.137z"/><path d="M18.265 2.759L5.004 1.253a1.821 1.821 0 00-1.433.413 1.846 1.846 0 00-.704 1.263L2.624 4.92H1.87C.802 4.92 0 5.868 0 6.936v9.933a1.846 1.846 0 001.87 1.895h13.333c1.069 0 2.04-.826 2.04-1.895v-.388c.332-.064.646-.197.923-.389.394-.331.646-.8.705-1.311l1.117-9.86a1.967 1.967 0 00-1.724-2.162zm-1.992 14.11c0 .535-.534.923-1.069.923H1.871a.874.874 0 01-.899-.923v-1.797l3.765-2.768a1.166 1.166 0 011.505.072l2.648 2.332a2.28 2.28 0 001.433.534 2.21 2.21 0 001.165-.316l4.785-2.768v4.711zm0-5.853l-5.295 3.085c-.454.27-1.03.22-1.433-.122l-2.671-2.355a2.162 2.162 0 00-2.696-.098L.972 13.858V6.936c0-.534.364-1.044.899-1.044h13.333a1.117 1.117 0 011.069 1.044v4.08zm2.745-6.227v.01l-1.142 9.86a.826.826 0 01-.316.656c-.097.097-.316.146-.316.194V6.936a2.089 2.089 0 00-2.04-2.016H3.595l.219-1.894c.047-.245.175-.468.364-.632.213-.147.47-.215.729-.194l13.236 1.53a.972.972 0 01.875 1.06z"/></g><defs><clipPath id="clip0_4_34475"><path fill="#fff" d="M0 0h20v20H0z"/></clipPath></defs></svg>