<svg width="14" height="27" fill="none" xmlns="http://www.w3.org/2000/svg"><path d="M10.364 6.2a1.902 1.902 0 01-1.5-1.694l-.012-.224a1.107 1.107 0 00-1.129-1.081h-.531v-.382h.41a.398.398 0 100-.797h-.41V.398a.398.398 0 00-.797 0v1.624h-.41a.398.398 0 000 .797h.41V3.2h-.532a1.103 1.103 0 00-1.128 1.061l-.012.242a1.903 1.903 0 01-1.5 1.696C1.838 6.548 0 7.263 0 9.436a.399.399 0 00.19.34c2.38 1.463 3.312 5.248 2.53 7.517a15.68 15.68 0 00-.91 4.972 1.046 1.046 0 00.3.766 1.162 1.162 0 00.831.347l3.454-.01v2.846a.398.398 0 00.797 0V23.37l3.455.008a1.163 1.163 0 00.831-.347 1.045 1.045 0 00.3-.764 15.673 15.673 0 00-.91-4.968c-.782-2.28.15-6.06 2.53-7.523a.398.398 0 00.189-.339c0-2.173-1.84-2.888-3.223-3.236zm-.247 11.363l.004.012a14.87 14.87 0 01.861 4.716.255.255 0 01-.076.185.36.36 0 01-.257.105l-3.856-.01-3.852.01a.36.36 0 01-.259-.105.255.255 0 01-.076-.187c.03-1.612.322-3.208.864-4.726.878-2.547-.083-6.584-2.665-8.339.085-1.135.88-1.815 2.612-2.251a2.695 2.695 0 002.102-2.427l.012-.264a.311.311 0 01.332-.284h1.86a.314.314 0 01.332.304l.013.245a2.695 2.695 0 002.101 2.426c1.732.436 2.527 1.115 2.613 2.251-2.582 1.755-3.544 5.792-2.665 8.34z" fill="#9E9E9E"/></svg>