<svg width="16" height="16" fill="none" xmlns="http://www.w3.org/2000/svg"><mask id="a" style="mask-type:alpha" maskUnits="userSpaceOnUse" x="0" y="0" width="16" height="16"><path d="M8 16a2 2 0 002-2H6a2 2 0 002 2z" fill="#000"/><path fill-rule="evenodd" clip-rule="evenodd" d="M8 1.918l-.797.161A4.002 4.002 0 004 6c0 .628-.134 2.197-.459 3.742-.16.767-.376 1.566-.663 2.258h10.244c-.287-.692-.502-1.49-.663-2.258C12.134 8.197 12 6.628 12 6a4.002 4.002 0 00-3.203-3.92L8 1.917zM14.22 12c.223.447.481.801.78 1H1c.299-.199.557-.553.78-1C2.68 10.2 3 6.88 3 6c0-2.42 1.72-4.44 4.005-4.901a1 1 0 111.99 0A5.002 5.002 0 0113 6c0 .88.32 4.2 1.22 6z" fill="#000"/></mask><g mask="url(#a)"><path fill="#9E9E9E" d="M0 0h16v16H0z"/></g></svg>