<svg width="13" height="13" fill="none" xmlns="http://www.w3.org/2000/svg"><path d="M6.745 3.185c-1.76 0-3.18 1.42-3.18 3.18 0 1.76 1.42 3.179 3.18 3.179 1.76 0 3.179-1.42 3.179-3.18 0-1.76-1.42-3.179-3.18-3.179zm0 5.246a2.07 2.07 0 01-2.067-2.067 2.067 2.067 0 014.133 0 2.07 2.07 0 01-2.066 2.067zm4.05-5.376a.74.74 0 01-.741.742.742.742 0 11.741-.742zm2.106.753c-.047-.994-.274-1.873-1.002-2.598C11.174.485 10.295.258 9.301.208 8.277.15 5.21.15 4.185.208c-.99.047-1.87.274-2.598.999C.859 1.932.635 2.812.585 3.805c-.058 1.024-.058 4.092 0 5.116.047.993.274 1.873 1.002 2.598.728.725 1.605.952 2.598 1.002 1.024.058 4.092.058 5.116 0 .993-.047 1.873-.274 2.598-1.002.725-.725.952-1.605 1.002-2.598.058-1.024.058-4.09 0-5.113zm-1.323 6.212c-.215.542-.633.96-1.178 1.178-.817.324-2.753.25-3.655.25-.902 0-2.842.071-3.656-.25a2.093 2.093 0 01-1.178-1.178c-.324-.817-.25-2.754-.25-3.656 0-.902-.071-2.841.25-3.655a2.09 2.09 0 011.178-1.178c.817-.324 2.754-.25 3.656-.25.902 0 2.841-.071 3.655.25.542.215.96.633 1.178 1.178.324.817.25 2.753.25 3.655 0 .902.074 2.842-.25 3.656z" fill="#fff"/></svg>