<svg width="20" height="20" fill="none" xmlns="http://www.w3.org/2000/svg"><path fill="#fff" d="M0 0h20v20H0z"/><path d="M16.766 3.326a4.204 4.204 0 00-1.366-.981A3.957 3.957 0 0013.79 2c-.553 0-1.1.117-1.612.345-.51.227-.975.56-1.366.981L10 4.198l-.812-.872C8.398 2.477 7.328 2 6.211 2c-1.117 0-2.188.477-2.978 1.326-.79.849-1.233 2-1.233 3.2 0 1.201.444 2.352 1.233 3.201l.812.872L10 17l5.955-6.4.811-.873c.391-.42.702-.92.913-1.468a4.823 4.823 0 000-3.465 4.562 4.562 0 00-.913-1.468z" fill="#2C2C31" stroke="#2C2C31" stroke-width="1.333" stroke-linecap="round" stroke-linejoin="round"/></svg>