<svg width="18" height="18" fill="none" xmlns="http://www.w3.org/2000/svg"><path d="M18 10.688c0-.451-.18-.871-.488-1.181.35-.383.529-.897.48-1.432-.088-.953-.947-1.7-1.956-1.7h-4.633c.23-.697.597-1.974.597-3 0-1.627-1.382-3-2.25-3-.779 0-1.336.439-1.359.457a.375.375 0 00-.141.293v2.543l-2.16 4.68-.09.045V8.25a.375.375 0 00-.375-.375h-3.75C.841 7.875 0 8.715 0 9.75v6c0 1.034.84 1.875 1.875 1.875h2.25a1.88 1.88 0 001.765-1.24c.624.321 1.464.49 1.985.49h6.884c.817 0 1.532-.55 1.7-1.31a1.692 1.692 0 00-.135-1.127 1.68 1.68 0 00.75-2.25 1.68 1.68 0 00.926-1.5zm-1.582.925a.376.376 0 00-.214.646c.19.179.296.42.296.678a.935.935 0 01-.831.926.376.376 0 00-.215.646.928.928 0 01.272.894c-.092.419-.499.722-.967.722H7.875c-.609 0-1.63-.286-1.984-.64a.375.375 0 00-.64.265 1.128 1.128 0 01-1.126 1.125h-2.25c-.62 0-1.125-.505-1.125-1.125v-6c0-.62.505-1.125 1.125-1.125H5.25V9c0 .13.067.25.178.32.11.065.248.072.365.015l.75-.375a.374.374 0 00.172-.178l2.25-4.875A.382.382 0 009 3.75V1.328c.156-.086.427-.203.75-.203.411 0 1.5 1.021 1.5 2.25 0 1.32-.719 3.223-.725 3.242a.378.378 0 00.041.346c.07.101.186.162.309.162h5.16c.626 0 1.157.448 1.21 1.02a1.12 1.12 0 01-.534 1.06.375.375 0 00.025.654.928.928 0 01-.318 1.754z" fill="#9E9E9E"/><path d="M5.625 8.625A.375.375 0 005.25 9v6.75a.375.375 0 00.75 0V9a.375.375 0 00-.375-.375z" fill="#9E9E9E"/></svg>