<svg width="25" height="25" fill="none" xmlns="http://www.w3.org/2000/svg"><path d="M18.074 24.324H6.926a1.351 1.351 0 01-1.352-1.35V2.026A1.351 1.351 0 016.926.676h11.148a1.352 1.352 0 011.352 1.351v20.946a1.351 1.351 0 01-1.352 1.351zM6.926 1.351a.676.676 0 00-.676.676v20.946a.675.675 0 00.676.676h11.148a.675.675 0 00.676-.676V2.027a.676.676 0 00-.676-.676H6.926z" fill="#9E9E9E"/><path d="M19.088 4.392H5.912a.338.338 0 110-.675h13.176a.338.338 0 110 .675zm0 15.541H5.912a.338.338 0 010-.676h13.176a.338.338 0 110 .675zm-6.589 3.104a1.246 1.246 0 110-2.492 1.246 1.246 0 010 2.492zm0-1.816a.57.57 0 100 1.14.57.57 0 000-1.14zm1.353-18.265H11.15a.338.338 0 110-.676h2.703a.338.338 0 010 .676z" fill="#9E9E9E"/></svg>