<svg width="16" height="16" fill="none" xmlns="http://www.w3.org/2000/svg"><path d="M8 16c4.411 0 8-3.589 8-8s-3.589-8-8-8-8 3.589-8 8 3.589 8 8 8zM8 .713c4.018 0 7.287 3.27 7.287 7.287 0 4.018-3.27 7.287-7.287 7.287C3.982 15.287.713 12.017.713 8 .713 3.982 3.983.713 8 .713z" fill="#F44E51"/><path d="M6.028 7.281a1.477 1.477 0 100-2.954 1.477 1.477 0 000 2.954zm0-2.241a.764.764 0 110 1.528.764.764 0 010-1.528zm2.377 5.246a1.477 1.477 0 102.954 0 1.477 1.477 0 00-2.954 0zm2.241 0a.764.764 0 11-1.527 0 .764.764 0 011.527 0zm-5.363 1.878a.357.357 0 00.494-.104l5.042-7.73a.357.357 0 10-.598-.39L5.18 11.67a.357.357 0 00.104.494z" fill="#F44E51"/></svg>