<svg width="15" height="15" fill="none" xmlns="http://www.w3.org/2000/svg"><path d="M7.813 5.178h-.627a.503.503 0 010-1.004H8.44a.44.44 0 000-.88h-.502v-.501a.44.44 0 00-.88 0v.508a1.383 1.383 0 00-1.254 1.375c0 .761.62 1.38 1.38 1.38h.628a.503.503 0 010 1.005H6.558a.44.44 0 000 .878h.502v.502a.44.44 0 00.879 0v-.508A1.383 1.383 0 009.194 6.56c0-.762-.62-1.381-1.38-1.381zm2.04 5.177H5.146a.44.44 0 100 .88h4.707a.44.44 0 000-.88z" fill="#9E9E9E"/><path d="M12.678 0H2.322a.44.44 0 00-.44.44v12.826a.44.44 0 00.13.31l1.294 1.295a.44.44 0 00.621 0l.984-.983.984.983a.44.44 0 00.621 0l.984-.983.984.983a.44.44 0 00.621 0l.984-.983.983.983a.438.438 0 00.622 0l1.294-1.294a.44.44 0 00.13-.31V.438a.44.44 0 00-.44-.439zm-1.295 13.939l-.983-.984a.44.44 0 00-.622 0l-.984.984-.983-.984a.44.44 0 00-.622 0l-.984.984-.983-.984a.44.44 0 00-.622 0l-.983.984-.855-.855V.879h9.476v12.205l-.855.855z" fill="#9E9E9E"/></svg>