<svg width="18" height="18" fill="none" xmlns="http://www.w3.org/2000/svg"><path d="M9 18c-4.956 0-9-4.045-9-9 0-4.956 4.045-9 9-9 4.956 0 9 4.045 9 9 0 4.956-4.045 9-9 9zM9 1.055C4.619 1.055 1.055 4.619 1.055 9S4.619 16.945 9 16.945 16.945 13.381 16.945 9 13.381 1.055 9 1.055z" fill="#9E9E9E"/><path d="M8.999 11.637a.527.527 0 01-.527-.528v-.564c0-.938.505-1.813 1.318-2.284a1.584 1.584 0 00-.791-2.952c-.872 0-1.582.71-1.582 1.582a.527.527 0 01-1.055 0A2.64 2.64 0 019 4.254a2.64 2.64 0 012.637 2.637c0 .938-.505 1.813-1.318 2.283a1.588 1.588 0 00-.792 1.371v.564a.527.527 0 01-.527.528zm0 2.109a.527.527 0 100-1.055.527.527 0 000 1.055z" fill="#9E9E9E"/></svg>