<svg width="16" height="16" fill="none" xmlns="http://www.w3.org/2000/svg"><g clip-path="url(#clip0_2591_25947)"><path d="M13.667 0H2.333A2.336 2.336 0 000 2.333v8a2.336 2.336 0 002.333 2.334h7.862l3.236 3.236a.336.336 0 00.363.072.333.333 0 00.206-.308v-3.024c1.13-.162 2-1.136 2-2.31v-8A2.336 2.336 0 0013.667 0zm1.666 10.333c0 .92-.748 1.667-1.666 1.667a.333.333 0 00-.334.333v2.529l-2.764-2.765a.336.336 0 00-.236-.097h-8a1.669 1.669 0 01-1.666-1.667v-8c0-.919.748-1.666 1.666-1.666h11.334c.918 0 1.666.747 1.666 1.666v8z" fill="#9E9E9E"/></g><defs><clipPath id="clip0_2591_25947"><path fill="#fff" d="M0 0h16v16H0z"/></clipPath></defs></svg>