<svg width="17" height="17" fill="none" xmlns="http://www.w3.org/2000/svg"><g clip-path="url(#clip0_2591_25938)" fill="#9E9E9E"><path d="M14.45 5.1h-3.825v.85h3.4v10.2H2.975V5.95h3.4V5.1H2.55a.425.425 0 00-.425.425v11.05c0 .235.19.425.425.425h11.9c.235 0 .425-.19.425-.425V5.525a.425.425 0 00-.425-.425z"/><path d="M11.353 7.778a.425.425 0 00-.6-.007l-1.83 1.788V.425a.425.425 0 00-.85 0v9.134L6.248 7.77a.425.425 0 00-.595.607l2.55 2.495a.425.425 0 00.601-.006l2.543-2.488a.425.425 0 00.007-.601z"/></g><defs><clipPath id="clip0_2591_25938"><path fill="#fff" d="M0 0h17v17H0z"/></clipPath></defs></svg>