<svg width="18" height="18" fill="none" xmlns="http://www.w3.org/2000/svg"><path d="M3 7.64h3.9a.3.3 0 100-.6H3a.3.3 0 100 .6zm7.8 1.2H3a.3.3 0 100 .6h7.8a.3.3 0 100-.6zm0 1.8H3a.3.3 0 100 .6h7.8a.3.3 0 100-.6z" fill="#9E9E9E"/><path d="M16.222.76L5.979.74A1.78 1.78 0 004.2 2.519v1.537l-2.421.005A1.78 1.78 0 000 5.84v6.342a1.78 1.78 0 001.779 1.779H3.6v3a.3.3 0 00.522.202l2.911-3.203 4.988-.02a1.78 1.78 0 001.779-1.779v-.034l1.578 1.736a.3.3 0 00.522-.202v-3h.321A1.78 1.78 0 0018 8.883V2.54c0-.981-.798-1.779-1.778-1.78zM13.2 12.162a1.18 1.18 0 01-1.18 1.179l-5.121.02a.3.3 0 00-.221.099L4.2 16.185V13.66a.3.3 0 00-.3-.3H1.779A1.18 1.18 0 01.6 12.182V5.84c0-.65.529-1.18 1.18-1.18l2.72-.005 7.521-.016c.65 0 1.179.53 1.179 1.18v6.341zm4.2-3.279a1.18 1.18 0 01-1.179 1.179H15.6a.3.3 0 00-.3.3v2.524l-1.5-1.65V5.819c0-.981-.798-1.78-1.78-1.78l-7.22.015V2.518c0-.65.529-1.179 1.178-1.179l10.243.021c.65 0 1.18.53 1.18 1.18v6.342H17.4z" fill="#9E9E9E"/></svg>