<svg width="18" height="18" fill="none" xmlns="http://www.w3.org/2000/svg"><path fill-rule="evenodd" clip-rule="evenodd" d="M.377 4.393c0-.969.77-1.768 1.739-1.768h12.272c.968 0 1.739.799 1.739 1.768V8.25a.375.375 0 01-.75 0V4.393c0-.57-.45-1.018-.989-1.018H2.116c-.539 0-.99.448-.99 1.018v6.964c.001.57.451 1.018.99 1.018h5.386a.375.375 0 010 .75H2.116c-.968 0-1.739-.799-1.739-1.768V4.393z" fill="#9E9E9E"/><path fill-rule="evenodd" clip-rule="evenodd" d="M.377 5.25c0-.207.168-.375.375-.375h15a.375.375 0 010 .75h-15a.375.375 0 01-.375-.375zM1.879 9c0-.207.168-.375.375-.375h1.5a.375.375 0 010 .75h-1.5A.375.375 0 011.879 9zm0 1.875c0-.207.168-.375.375-.375h3a.375.375 0 010 .75h-3a.375.375 0 01-.375-.375zm11.623-.75a3.375 3.375 0 100 6.75 3.375 3.375 0 000-6.75zM9.377 13.5a4.125 4.125 0 118.25 0 4.125 4.125 0 01-8.25 0z" fill="#9E9E9E"/><path fill-rule="evenodd" clip-rule="evenodd" d="M14.739 12.86a.375.375 0 01.53.53l-1.5 1.5a.375.375 0 01-.53 0l-1.125-1.125a.375.375 0 01.53-.53l.86.86 1.235-1.235z" fill="#9E9E9E"/></svg>