<svg width="29" height="29" fill="none" xmlns="http://www.w3.org/2000/svg"><circle cx="14.5" cy="14.5" r="14.5" fill="#31B4D0"/><g clip-path="url(#clip0_2_10317)"><path fill="#31B4D0" d="M7.979 8.7h11.6v11.6h-11.6z"/><path d="M8.183 14.293l2.673.998 1.035 3.327a.315.315 0 00.5.15l1.49-1.214a.444.444 0 01.541-.015l2.688 1.95a.315.315 0 00.493-.19l1.969-9.469a.315.315 0 00-.422-.358L8.18 13.704a.315.315 0 00.003.59zm3.541.467l5.224-3.218c.094-.057.19.07.11.145l-4.311 4.007a.894.894 0 00-.277.535l-.147 1.088c-.02.145-.224.16-.264.02l-.565-1.986a.526.526 0 01.23-.591z" fill="#fff"/></g><defs><clipPath id="clip0_2_10317"><path fill="#fff" transform="translate(7.979 8.7)" d="M0 0h11.6v11.6H0z"/></clipPath></defs></svg>