<svg width="17" height="17" fill="none" xmlns="http://www.w3.org/2000/svg"><g clip-path="url(#clip0_2_1600)"><path d="M17 1.3v4.59a.283.283 0 01-.567 0V1.3a.283.283 0 01.567 0zM8.5 3.932a3.169 3.169 0 003.15-2.852l1.758.175a.284.284 0 00.056-.563L11.41.485a.283.283 0 00-.311.282A2.6 2.6 0 018.5 3.365 2.6 2.6 0 015.902.767a.283.283 0 00-.567 0A3.168 3.168 0 008.5 3.931zM3.148 14.285c0 .157.127.284.283.284H13.57a.283.283 0 00.283-.284V5.89a.283.283 0 10-.567 0v8.113h-9.57V5.889a.283.283 0 00-.284-.283H.567v-4.05l3.212-.32a.283.283 0 00-.057-.564l-3.467.347A.283.283 0 000 1.3v4.588c0 .157.127.283.283.283h2.865v8.113zm13.521 1.765c-.026-.086-.026-.073-.567-.614a.283.283 0 10-.388.413H2.727a.283.283 0 000 .567h12.987c-.134.134-.115.31-.012.412.11.111.29.111.4 0 .328-.327.501-.497.522-.526a.283.283 0 00.045-.252zm-15.017-.614a.283.283 0 00-.4 0l-.496.496c-.11.11-.11.29 0 .4l.496.496a.284.284 0 00.4-.4l-.295-.296.295-.295a.282.282 0 000-.4zm13.33-14.38v11.428a.283.283 0 00.566 0V1.056a.284.284 0 10.412-.389c-.016-.016-.498-.5-.516-.514a.284.284 0 00-.207-.063c-.129.012-.14.048-.669.577a.285.285 0 000 .401c.101.101.277.124.413-.012zm.082 13.4c.11.11.29.11.4 0l.497-.496a.283.283 0 10-.4-.4l-.296.294-.296-.295a.283.283 0 00-.4.4l.495.497z" fill="#0060D2"/></g><defs><clipPath id="clip0_2_1600"><path fill="#fff" d="M0 0h17v17H0z"/></clipPath></defs></svg>