<svg width="16" height="16" fill="none" xmlns="http://www.w3.org/2000/svg"><mask id="a" style="mask-type:alpha" maskUnits="userSpaceOnUse" x="0" y="0" width="16" height="16"><path fill-rule="evenodd" clip-rule="evenodd" d="M10.667 4a2.667 2.667 0 11-5.334 0 2.667 2.667 0 015.334 0zM8 8a4 4 0 100-8 4 4 0 000 8zm8 6.667C16 16 14.667 16 14.667 16H1.333S0 16 0 14.667c0-1.334 1.333-5.334 8-5.334s8 4 8 5.334zm-1.333-.005c-.002-.329-.205-1.315-1.11-2.22-.87-.869-2.505-1.775-5.557-1.775-3.052 0-4.688.906-5.557 1.776-.905.904-1.108 1.89-1.11 2.219h13.334z" fill="#000"/></mask><g mask="url(#a)"><path fill="#9E9E9E" d="M0 0h16v16H0z"/></g></svg>