<svg width="20" height="20" fill="none" xmlns="http://www.w3.org/2000/svg"><g clip-path="url(#clip0_2510_21209)" fill="#9E9E9E"><path d="M19.926 9.763c-.158-.229-3.943-5.596-9.926-5.596C4.866 4.167.29 9.503.098 9.73a.418.418 0 000 .538c.193.228 4.768 5.564 9.902 5.564 5.134 0 9.71-5.336 9.902-5.564a.417.417 0 00.024-.506zM10 15c-4.116 0-8.03-3.925-9.024-5C1.97 8.924 5.878 5 10 5c4.816 0 8.215 3.92 9.045 4.977C18.087 11.018 14.151 15 10 15z"/><path d="M10 6.667A3.337 3.337 0 006.667 10 3.337 3.337 0 0010 13.333 3.337 3.337 0 0013.334 10 3.337 3.337 0 0010 6.667zm0 5.833A2.503 2.503 0 017.5 10c0-1.378 1.122-2.5 2.5-2.5 1.379 0 2.5 1.122 2.5 2.5s-1.121 2.5-2.5 2.5z"/></g><defs><clipPath id="clip0_2510_21209"><path fill="#fff" d="M0 0h20v20H0z"/></clipPath></defs></svg>