<svg width="20" height="19" fill="none" xmlns="http://www.w3.org/2000/svg"><ellipse cx="9.763" cy="9.45" rx="9.763" ry="9.45" fill="#2B2525"/><path fill="#fff" d="M2.629 5.647L5.83 2.548l11.072 10.717-3.202 3.1z"/><path fill="#fff" d="M13.703 2.548l3.202 3.099L5.833 16.363 2.63 13.264z"/><path fill="#5AFA5A" d="M9.77 6.355l3.201 3.1-7.138 6.91-3.202-3.1z"/><path fill="#5AFA5A" d="M9.77 6.355l3.201 3.1-7.138 6.91-3.202-3.1z"/><path fill="#5AFA5A" d="M9.77 6.355l3.201 3.1-7.138 6.91-3.202-3.1z"/><path fill="#5AFA5A" d="M2.629 5.642l3.202-3.1 7.138 6.91-3.201 3.1z"/><path fill="#5AFA5A" d="M2.629 5.642l3.202-3.1 7.138 6.91-3.201 3.1z"/><path fill="#5AFA5A" d="M2.629 5.642l3.202-3.1 7.138 6.91-3.201 3.1z"/></svg>