<svg width="73" height="12" fill="none" xmlns="http://www.w3.org/2000/svg"><path d="M7.304 5.556l1.102 1.716 2.224-3.465v7.674h1.913V.319H10.59L7.304 5.556zM1.935.32H0v11.16h1.92V3.808l4.355 6.812 1.11-1.738L1.935.319zm22.111 7.7l1.773 3.46h2.305L22.337.32h-2.08l-.003.003 2.9 5.917h-3.851l1.002-1.928-1.047-2.098-4.876 9.267h2.157l1.824-3.458 5.683-.004zM40.9.32h-1.92v5.418l1.92 1.887V.32zm-9.261 0h-1.95v11.16h1.92V3.139l7.863 8.343H40.9v-1.356L31.639.32zm22.666 3.097c-.914-.928-2.324-1.523-3.904-1.523-2.523 0-4.606 1.516-4.939 3.48h-2.113c.278-3.053 3.467-5.3 7.078-5.3 2.146 0 4.078.784 5.377 2.043l-1.499 1.3zM50.224 9.92c-2.105 0-3.9-1.117-4.566-2.677h-2.153c.714 2.693 3.515 4.487 6.841 4.487.773 0 1.661-.075 2.398-.253 1.665-.405 3.485-1.463 3.485-3.135V5.375h-6.023l-.004 1.868h4.103v.847c0 .936-1.432 1.478-2.305 1.667a7.846 7.846 0 01-1.561.164h-.215zM72.09 5.91c0-3.33-3.088-5.91-6.88-5.91-3.674 0-6.9 2.463-6.9 5.731 0 3.083 2.534 5.553 5.945 5.943V9.809c-2.235-.36-3.922-1.99-3.922-3.955 0-2.229 2.172-4.034 4.847-4.034 2.679 0 4.847 1.809 4.847 4.034 0 1.95-1.661 3.57-3.87 3.948v1.868c3.282-.39 5.935-2.767 5.935-5.76z" fill="#1A171B"/></svg>